%TF.GenerationSoftware,KiCad,Pcbnew,10.0.3*%
%TF.CreationDate,2026-06-08T21:25:44-05:00*%
%TF.ProjectId,OPA564,4f504135-3634-42e6-9b69-6361645f7063,rev?*%
%TF.SameCoordinates,Original*%
%TF.FileFunction,Copper,L1,Top*%
%TF.FilePolarity,Positive*%
%FSLAX46Y46*%
G04 Gerber Fmt 4.6, Leading zero omitted, Abs format (unit mm)*
G04 Created by KiCad (PCBNEW 10.0.3) date 2026-06-08 21:25:44*
%MOMM*%
%LPD*%
G01*
G04 APERTURE LIST*
G04 Aperture macros list*
%AMRoundRect*
0 Rectangle with rounded corners*
0 $1 Rounding radius*
0 $2 $3 $4 $5 $6 $7 $8 $9 X,Y pos of 4 corners*
0 Add a 4 corners polygon primitive as box body*
4,1,4,$2,$3,$4,$5,$6,$7,$8,$9,$2,$3,0*
0 Add four circle primitives for the rounded corners*
1,1,$1+$1,$2,$3*
1,1,$1+$1,$4,$5*
1,1,$1+$1,$6,$7*
1,1,$1+$1,$8,$9*
0 Add four rect primitives between the rounded corners*
20,1,$1+$1,$2,$3,$4,$5,0*
20,1,$1+$1,$4,$5,$6,$7,0*
20,1,$1+$1,$6,$7,$8,$9,0*
20,1,$1+$1,$8,$9,$2,$3,0*%
G04 Aperture macros list end*
%TA.AperFunction,SMDPad,CuDef*%
%ADD10RoundRect,0.250000X0.450000X-0.350000X0.450000X0.350000X-0.450000X0.350000X-0.450000X-0.350000X0*%
%TD*%
%TA.AperFunction,SMDPad,CuDef*%
%ADD11RoundRect,0.250000X-0.337500X-0.475000X0.337500X-0.475000X0.337500X0.475000X-0.337500X0.475000X0*%
%TD*%
%TA.AperFunction,SMDPad,CuDef*%
%ADD12RoundRect,0.250000X-0.537500X-1.450000X0.537500X-1.450000X0.537500X1.450000X-0.537500X1.450000X0*%
%TD*%
%TA.AperFunction,ComponentPad*%
%ADD13C,2.000000*%
%TD*%
%TA.AperFunction,SMDPad,CuDef*%
%ADD14R,1.981200X0.558800*%
%TD*%
%TA.AperFunction,SMDPad,CuDef*%
%ADD15R,2.794000X3.810000*%
%TD*%
%TA.AperFunction,ComponentPad*%
%ADD16C,1.550000*%
%TD*%
%TA.AperFunction,ComponentPad*%
%ADD17C,2.800000*%
%TD*%
%TA.AperFunction,Conductor*%
%ADD18C,0.200000*%
%TD*%
G04 APERTURE END LIST*
D10*
%TO.P,R3,1*%
%TO.N,GND*%
X149113125Y-56390000D03*
%TO.P,R3,2*%
%TO.N,Net-(IC1--IN)*%
X149113125Y-54390000D03*
%TD*%
D11*
%TO.P,C4,1*%
%TO.N,GND*%
X130586875Y-79400000D03*
%TO.P,C4,2*%
%TO.N,-12 Volts*%
X132661875Y-79400000D03*
%TD*%
D12*
%TO.P,C5,1*%
%TO.N,GND*%
X129593125Y-74800000D03*
%TO.P,C5,2*%
%TO.N,+12 Volts*%
X133868125Y-74800000D03*
%TD*%
D10*
%TO.P,R1,1*%
%TO.N,-12 Volts*%
X149113125Y-65890000D03*
%TO.P,R1,2*%
%TO.N,Net-(IC1-ISET)*%
X149113125Y-63890000D03*
%TD*%
D13*
%TO.P,,1,Pin_1*%
%TO.N,+12 Volts*%
X169768125Y-74700000D03*
%TD*%
D12*
%TO.P,C3,1*%
%TO.N,GND*%
X129630625Y-84200000D03*
%TO.P,C3,2*%
%TO.N,-12 Volts*%
X133905625Y-84200000D03*
%TD*%
D11*
%TO.P,C8,1*%
%TO.N,GND*%
X130768125Y-89500000D03*
%TO.P,C8,2*%
%TO.N,-8 Volts*%
X132843125Y-89500000D03*
%TD*%
D13*
%TO.P,,1,Pin_1*%
%TO.N,-8 Volts*%
X169756875Y-96700000D03*
%TD*%
%TO.P,,1,Pin_1*%
%TO.N,-12 Volts*%
X169268125Y-84700000D03*
%TD*%
D11*
%TO.P,C6,1*%
%TO.N,GND*%
X130693125Y-69300000D03*
%TO.P,C6,2*%
%TO.N,+12 Volts*%
X132768125Y-69300000D03*
%TD*%
D14*
%TO.P,IC1,1,V-_1_1*%
%TO.N,-12 Volts*%
X130715125Y-54270000D03*
%TO.P,IC1,2,V+_PWR_1_2*%
%TO.N,+12 Volts*%
X130715125Y-55540000D03*
%TO.P,IC1,3,V+_PWR_2_3*%
X130715125Y-56810000D03*
%TO.P,IC1,4,V+_PWR_3_4*%
X130715125Y-58080000D03*
%TO.P,IC1,5,VOUT_1_5*%
%TO.N,Net-(IC1-VOUT_1)*%
X130715125Y-59350000D03*
%TO.P,IC1,6,VOUT_2_6*%
X130715125Y-60620000D03*
%TO.P,IC1,7,V-PWR_1_7*%
%TO.N,-12 Volts*%
X130715125Y-61890000D03*
%TO.P,IC1,8,V-PWR_2_8*%
X130715125Y-63160000D03*
%TO.P,IC1,9,TSENSE_9*%
%TO.N,unconnected-(IC1-TSENSE-Pad9)*%
X130715125Y-64430000D03*
%TO.P,IC1,10,V-_2_10*%
%TO.N,-12 Volts*%
X130715125Y-65700000D03*
%TO.P,IC1,11,V-_3_11*%
X140113125Y-65700000D03*
%TO.P,IC1,12,ISET_12*%
%TO.N,Net-(IC1-ISET)*%
X140113125Y-64430000D03*
%TO.P,IC1,13,IFLAG_13*%
%TO.N,unconnected-(IC1-IFLAG-Pad13)*%
X140113125Y-63160000D03*
%TO.P,IC1,14,VDIG_14*%
%TO.N,-8 Volts*%
X140113125Y-61890000D03*
%TO.P,IC1,15,-IN_15*%
%TO.N,Net-(IC1--IN)*%
X140113125Y-60620000D03*
%TO.P,IC1,16,+IN_16*%
%TO.N,Signal Input*%
X140113125Y-59350000D03*
%TO.P,IC1,17,E/~{S}_17*%
%TO.N,unconnected-(IC1-E{slash}~{S}-Pad17)*%
X140113125Y-58080000D03*
%TO.P,IC1,18,TFLAG_18*%
%TO.N,unconnected-(IC1-TFLAG-Pad18)*%
X140113125Y-56810000D03*
%TO.P,IC1,19,V+_19*%
%TO.N,+12 Volts*%
X140113125Y-55540000D03*
%TO.P,IC1,20,V-_4_20*%
%TO.N,-12 Volts*%
X140113125Y-54270000D03*
D15*
%TO.P,IC1,21,EP_21*%
%TO.N,unconnected-(IC1-EP-Pad21)*%
X135414125Y-59985000D03*
%TD*%
D16*
%TO.P,J1,1,In_1*%
%TO.N,Signal Input*%
X162300625Y-59890000D03*
D17*
%TO.P,J1,2,Ext_2*%
%TO.N,GND*%
X170100625Y-63690000D03*
%TO.P,J1,3*%
%TO.N,N/C*%
X170100625Y-56090000D03*
%TD*%
D10*
%TO.P,R2,1*%
%TO.N,Net-(IC1--IN)*%
X149113125Y-60390000D03*
%TO.P,R2,2*%
%TO.N,Net-(IC1-VOUT_1)*%
X149113125Y-58390000D03*
%TD*%
D12*
%TO.P,C7,1*%
%TO.N,GND*%
X129668125Y-95000000D03*
%TO.P,C7,2*%
%TO.N,-8 Volts*%
X133943125Y-95000000D03*
%TD*%
D16*
%TO.P,J2,1,In_1*%
%TO.N,Net-(IC1-VOUT_1)*%
X126768125Y-59700000D03*
D17*
%TO.P,J2,2,Ext_2*%
%TO.N,GND*%
X118968125Y-55900000D03*
%TO.P,J2,3*%
%TO.N,N/C*%
X118968125Y-63500000D03*
%TD*%
%TO.N,GND*%
D18*
X152413125Y-63690000D02*
X170100625Y-63690000D01*
X130586875Y-83243750D02*
X129630625Y-84200000D01*
X171500624Y-65089999D02*
X170100625Y-63690000D01*
X158901225Y-52490600D02*
X170100625Y-63690000D01*
X130586875Y-79400000D02*
X130586875Y-83243750D01*
X130768125Y-93900000D02*
X129668125Y-95000000D01*
X129668125Y-95000000D02*
X132668125Y-98000000D01*
X130693125Y-69300000D02*
X130693125Y-73700000D01*
X149113125Y-56390000D02*
X150613125Y-57890000D01*
X129593125Y-74800000D02*
X133168125Y-78375000D01*
X150613125Y-57890000D02*
X150613125Y-61890000D01*
X130693125Y-73700000D02*
X129593125Y-74800000D01*
X133168125Y-78375000D02*
X167931603Y-78375000D01*
X171500624Y-84305979D02*
X171500624Y-65089999D01*
X171500624Y-96794729D02*
X171500624Y-65089999D01*
X118968125Y-55900000D02*
X122377525Y-52490600D01*
X150613125Y-61890000D02*
X152413125Y-63690000D01*
X122377525Y-52490600D02*
X158901225Y-52490600D01*
X167931603Y-78375000D02*
X171500624Y-74805979D01*
X169606603Y-86200000D02*
X171500624Y-84305979D01*
X171500624Y-74805979D02*
X171500624Y-65089999D01*
X132668125Y-98000000D02*
X170295353Y-98000000D01*
X130768125Y-89500000D02*
X130768125Y-93900000D01*
X131630625Y-86200000D02*
X169606603Y-86200000D01*
X170295353Y-98000000D02*
X171500624Y-96794729D01*
X129630625Y-84200000D02*
X131630625Y-86200000D01*
%TO.N,Net-(IC1--IN)*%
X149113125Y-54390000D02*
X148113125Y-55390000D01*
X140343125Y-60390000D02*
X140113125Y-60620000D01*
X148113125Y-59390000D02*
X149113125Y-60390000D01*
X148113125Y-55390000D02*
X148113125Y-59390000D01*
X149113125Y-60390000D02*
X140343125Y-60390000D01*
%TO.N,-12 Volts*%
X148613125Y-65890000D02*
X148423125Y-65700000D01*
X130715125Y-63160000D02*
X131315125Y-63160000D01*
X137613125Y-63911200D02*
X139401925Y-65700000D01*
X125293125Y-57144315D02*
X129146840Y-53290600D01*
X131315125Y-54270000D02*
X132113125Y-55068000D01*
X141403725Y-56119400D02*
X138193725Y-56119400D01*
X137613125Y-55890000D02*
X137613125Y-56700000D01*
X148423125Y-65700000D02*
X140113125Y-65700000D01*
X128820881Y-76800000D02*
X125293125Y-73272244D01*
X132661875Y-82956250D02*
X133905625Y-84200000D01*
X134405625Y-84700000D02*
X133905625Y-84200000D01*
X129146840Y-53290600D02*
X141579411Y-53290600D01*
X137613125Y-56700000D02*
X137613125Y-63911200D01*
X142013125Y-55510000D02*
X141403725Y-56119400D01*
X132005725Y-65120600D02*
X131426325Y-65700000D01*
X132113125Y-55068000D02*
X132113125Y-58552000D01*
X130715125Y-54270000D02*
X131315125Y-54270000D01*
X130061875Y-76800000D02*
X128820881Y-76800000D01*
X149113125Y-65890000D02*
X148613125Y-65890000D01*
X169268125Y-84700000D02*
X134405625Y-84700000D01*
X132113125Y-58552000D02*
X132113125Y-58890000D01*
X138193725Y-56119400D02*
X137613125Y-56700000D01*
X125293125Y-73272244D02*
X125293125Y-57144315D01*
X132661875Y-79400000D02*
X132661875Y-82956250D01*
X131613125Y-61890000D02*
X130715125Y-61890000D01*
X132661875Y-79400000D02*
X130061875Y-76800000D01*
X132005725Y-63850600D02*
X132005725Y-65120600D01*
X139401925Y-65700000D02*
X140113125Y-65700000D01*
X131315125Y-63160000D02*
X132005725Y-63850600D01*
X132113125Y-58890000D02*
X132113125Y-61390000D01*
X142013125Y-53724315D02*
X142013125Y-55510000D01*
X139233125Y-54270000D02*
X137613125Y-55890000D01*
X130715125Y-63160000D02*
X130715125Y-61890000D01*
X131315125Y-61890000D02*
X130715125Y-61890000D01*
X140113125Y-54270000D02*
X139233125Y-54270000D01*
X132113125Y-61390000D02*
X131613125Y-61890000D01*
X141579411Y-53290600D02*
X142013125Y-53724315D01*
X131426325Y-65700000D02*
X130715125Y-65700000D01*
X130715125Y-54270000D02*
X140113125Y-54270000D01*
%TO.N,+12 Volts*%
X126867845Y-58080000D02*
X130715125Y-58080000D01*
X141613125Y-53890000D02*
X141613125Y-54751200D01*
X141413725Y-53690600D02*
X141613125Y-53890000D01*
X129113125Y-53890000D02*
X129312525Y-53690600D01*
X132768125Y-73700000D02*
X133868125Y-74800000D01*
X130658125Y-67190000D02*
X129769439Y-67190000D01*
X169768125Y-74700000D02*
X133968125Y-74700000D01*
X133968125Y-74700000D02*
X133868125Y-74800000D01*
X125693125Y-63113686D02*
X125693125Y-59254720D01*
X140824325Y-55540000D02*
X140113125Y-55540000D01*
X141613125Y-54751200D02*
X140824325Y-55540000D01*
X130715125Y-58080000D02*
X130715125Y-55540000D01*
X129113125Y-54890000D02*
X129113125Y-53890000D01*
X129901925Y-55678800D02*
X129113125Y-54890000D01*
X132768125Y-69300000D02*
X130658125Y-67190000D01*
X132768125Y-69300000D02*
X132768125Y-73700000D01*
X129312525Y-53690600D02*
X141413725Y-53690600D01*
X125693125Y-59254720D02*
X126867845Y-58080000D01*
X129769439Y-67190000D02*
X125693125Y-63113686D01*
%TO.N,Net-(IC1-ISET)*%
X140653125Y-63890000D02*
X140113125Y-64430000D01*
X149113125Y-63890000D02*
X140653125Y-63890000D01*
%TO.N,-8 Volts*%
X138967525Y-57500600D02*
X138268125Y-58200000D01*
X129358381Y-86700000D02*
X124893125Y-82234744D01*
X124893125Y-82234744D02*
X124893125Y-56978629D01*
X142958725Y-55945600D02*
X141403725Y-57500600D01*
X141403725Y-57500600D02*
X138967525Y-57500600D01*
X132843125Y-93900000D02*
X133943125Y-95000000D01*
X138268125Y-60645000D02*
X139513125Y-61890000D01*
X128981155Y-52890600D02*
X142958725Y-52890600D01*
X138268125Y-58200000D02*
X138268125Y-60645000D01*
X124893125Y-56978629D02*
X128981155Y-52890600D01*
X132843125Y-89500000D02*
X130043125Y-86700000D01*
X130043125Y-86700000D02*
X129358381Y-86700000D01*
X142958725Y-52890600D02*
X142958725Y-55945600D01*
X132843125Y-89500000D02*
X132843125Y-93900000D01*
X169756875Y-96700000D02*
X168056875Y-95000000D01*
X168056875Y-95000000D02*
X133943125Y-95000000D01*
X139513125Y-61890000D02*
X140113125Y-61890000D01*
%TO.N,Net-(IC1-VOUT_1)*%
X149113125Y-58390000D02*
X150113125Y-59390000D01*
X129935125Y-66790000D02*
X129424525Y-66279400D01*
X130115125Y-60620000D02*
X130715125Y-60620000D01*
X130715125Y-59350000D02*
X130715125Y-60620000D01*
X129424525Y-66279400D02*
X129424525Y-61310600D01*
X149797869Y-66790000D02*
X129935125Y-66790000D01*
X127688125Y-60620000D02*
X130715125Y-60620000D01*
X150113125Y-66474744D02*
X149797869Y-66790000D01*
X129424525Y-61310600D02*
X130115125Y-60620000D01*
X126768125Y-59700000D02*
X127688125Y-60620000D01*
X150113125Y-59390000D02*
X150113125Y-66474744D01*
%TO.N,Signal Input*%
X146684325Y-53490000D02*
X140824325Y-59350000D01*
X162300625Y-59890000D02*
X155900625Y-53490000D01*
X140824325Y-59350000D02*
X140113125Y-59350000D01*
X155900625Y-53490000D02*
X146684325Y-53490000D01*
%TD*%
%TA.AperFunction,Conductor*%
%TO.N,GND*%
G36*
X173210664Y-49220185D02*
G01*
X173256419Y-49272989D01*
X173267625Y-49324500D01*
X173267625Y-103075500D01*
X173247940Y-103142539D01*
X173195136Y-103188294D01*
X173143625Y-103199500D01*
X116892625Y-103199500D01*
X116825586Y-103179815D01*
X116779831Y-103127011D01*
X116768625Y-103075500D01*
X116768625Y-96499986D01*
X128380626Y-96499986D01*
X128391119Y-96602697D01*
X128446266Y-96769119D01*
X128446268Y-96769124D01*
X128538309Y-96918345D01*
X128662279Y-97042315D01*
X128811500Y-97134356D01*
X128811505Y-97134358D01*
X128977927Y-97189505D01*
X128977934Y-97189506D01*
X129080644Y-97199999D01*
X129418124Y-97199999D01*
X129918125Y-97199999D01*
X130255597Y-97199999D01*
X130255611Y-97199998D01*
X130358322Y-97189505D01*
X130524744Y-97134358D01*
X130524749Y-97134356D01*
X130673970Y-97042315D01*
X130797940Y-96918345D01*
X130889981Y-96769124D01*
X130889983Y-96769119D01*
X130945130Y-96602697D01*
X130945131Y-96602690D01*
X130955624Y-96499986D01*
X130955625Y-96499973D01*
X130955625Y-95250000D01*
X129918125Y-95250000D01*
X129918125Y-97199999D01*
X129418124Y-97199999D01*
X129418125Y-97199998D01*
X129418125Y-95250000D01*
X128380626Y-95250000D01*
X128380626Y-96499986D01*
X116768625Y-96499986D01*
X116768625Y-93500013D01*
X128380625Y-93500013D01*
X128380625Y-94750000D01*
X129418125Y-94750000D01*
X129918125Y-94750000D01*
X130955624Y-94750000D01*
X130955624Y-93500028D01*
X130955623Y-93500013D01*
X130945130Y-93397302D01*
X130889983Y-93230880D01*
X130889981Y-93230875D01*
X130797940Y-93081654D01*
X130673970Y-92957684D01*
X130524749Y-92865643D01*
X130524744Y-92865641D01*
X130358322Y-92810494D01*
X130358315Y-92810493D01*
X130255611Y-92800000D01*
X129918125Y-92800000D01*
X129918125Y-94750000D01*
X129418125Y-94750000D01*
X129418125Y-92800000D01*
X129080653Y-92800000D01*
X129080637Y-92800001D01*
X128977927Y-92810494D01*
X128811505Y-92865641D01*
X128811500Y-92865643D01*
X128662279Y-92957684D01*
X128538309Y-93081654D01*
X128446268Y-93230875D01*
X128446266Y-93230880D01*
X128391119Y-93397302D01*
X128391118Y-93397309D01*
X128380625Y-93500013D01*
X116768625Y-93500013D01*
X116768625Y-90024986D01*
X129680626Y-90024986D01*
X129691119Y-90127697D01*
X129746266Y-90294119D01*
X129746268Y-90294124D01*
X129838309Y-90443345D01*
X129962279Y-90567315D01*
X130111500Y-90659356D01*
X130111505Y-90659358D01*
X130277927Y-90714505D01*
X130277934Y-90714506D01*
X130380644Y-90724999D01*
X130518124Y-90724999D01*
X130518125Y-90724998D01*
X130518125Y-89750000D01*
X129680626Y-89750000D01*
X129680626Y-90024986D01*
X116768625Y-90024986D01*
X116768625Y-82313798D01*
X124292623Y-82313798D01*
X124292624Y-82313801D01*
X124333548Y-82466529D01*
X124333549Y-82466531D01*
X124333548Y-82466531D01*
X124338861Y-82475732D01*
X124338862Y-82475733D01*
X124412602Y-82603456D01*
X124412606Y-82603461D01*
X124531474Y-82722329D01*
X124531479Y-82722333D01*
X128989665Y-87180520D01*
X128989667Y-87180521D01*
X128989671Y-87180524D01*
X129126590Y-87259573D01*
X129126597Y-87259577D01*
X129279324Y-87300501D01*
X129279326Y-87300501D01*
X129445035Y-87300501D01*
X129445051Y-87300500D01*
X129743028Y-87300500D01*
X129810067Y-87320185D01*
X129830709Y-87336819D01*
X130557209Y-88063319D01*
X130590694Y-88124642D01*
X130585710Y-88194334D01*
X130543838Y-88250267D01*
X130478374Y-88274684D01*
X130469529Y-88275000D01*
X130380654Y-88275000D01*
X130380637Y-88275001D01*
X130277927Y-88285494D01*
X130111505Y-88340641D01*
X130111500Y-88340643D01*
X129962279Y-88432684D01*
X129838309Y-88556654D01*
X129746268Y-88705875D01*
X129746266Y-88705880D01*
X129691119Y-88872302D01*
X129691118Y-88872309D01*
X129680625Y-88975013D01*
X129680625Y-89250000D01*
X130644125Y-89250000D01*
X130711164Y-89269685D01*
X130756919Y-89322489D01*
X130768125Y-89374000D01*
X130768125Y-89500000D01*
X130894125Y-89500000D01*
X130961164Y-89519685D01*
X131006919Y-89572489D01*
X131018125Y-89624000D01*
X131018125Y-90724999D01*
X131155597Y-90724999D01*
X131155611Y-90724998D01*
X131258322Y-90714505D01*
X131424744Y-90659358D01*
X131424749Y-90659356D01*
X131573970Y-90567315D01*
X131697943Y-90443342D01*
X131699790Y-90440348D01*
X131701594Y-90438724D01*
X131702423Y-90437677D01*
X131702601Y-90437818D01*
X131751735Y-90393621D01*
X131820698Y-90382396D01*
X131884781Y-90410236D01*
X131910868Y-90440341D01*
X131912913Y-90443656D01*
X132036969Y-90567712D01*
X132183722Y-90658229D01*
X132230446Y-90710175D01*
X132242625Y-90763767D01*
X132242625Y-93813330D01*
X132242624Y-93813348D01*
X132242624Y-93979054D01*
X132242623Y-93979054D01*
X132283548Y-94131785D01*
X132312483Y-94181900D01*
X132312484Y-94181904D01*
X132312485Y-94181904D01*
X132362604Y-94268714D01*
X132362606Y-94268717D01*
X132481474Y-94387585D01*
X132481480Y-94387590D01*
X132618806Y-94524916D01*
X132652291Y-94586239D01*
X132655125Y-94612597D01*
X132655125Y-96500001D01*
X132655126Y-96500018D01*
X132665625Y-96602796D01*
X132665626Y-96602799D01*
X132720740Y-96769119D01*
X132720811Y-96769334D01*
X132812913Y-96918656D01*
X132936969Y-97042712D01*
X133086291Y-97134814D01*
X133252828Y-97189999D01*
X133355616Y-97200500D01*
X134530633Y-97200499D01*
X134633422Y-97189999D01*
X134799959Y-97134814D01*
X134949281Y-97042712D01*
X135073337Y-96918656D01*
X135165439Y-96769334D01*
X135220624Y-96602797D01*
X135231125Y-96500009D01*
X135231125Y-95724500D01*
X135250810Y-95657461D01*
X135303614Y-95611706D01*
X135355125Y-95600500D01*
X167756778Y-95600500D01*
X167823817Y-95620185D01*
X167844459Y-95636819D01*
X168304075Y-96096435D01*
X168337560Y-96157758D01*
X168334325Y-96222433D01*
X168293322Y-96348628D01*
X168256375Y-96581902D01*
X168256375Y-96818097D01*
X168293321Y-97051368D01*
X168366308Y-97275996D01*
X168473532Y-97486433D01*
X168612358Y-97677510D01*
X168779365Y-97844517D01*
X168970442Y-97983343D01*
X169069866Y-98034002D01*
X169180878Y-98090566D01*
X169180880Y-98090566D01*
X169180883Y-98090568D01*
X169301287Y-98129689D01*
X169405506Y-98163553D01*
X169638778Y-98200500D01*
X169638783Y-98200500D01*
X169874972Y-98200500D01*
X170108243Y-98163553D01*
X170332867Y-98090568D01*
X170543308Y-97983343D01*
X170734385Y-97844517D01*
X170901392Y-97677510D01*
X171040218Y-97486433D01*
X171147443Y-97275992D01*
X171220428Y-97051368D01*
X171221862Y-97042315D01*
X171257375Y-96818097D01*
X171257375Y-96581902D01*
X171220428Y-96348631D01*
X171158409Y-96157758D01*
X171147443Y-96124008D01*
X171147441Y-96124005D01*
X171147441Y-96124003D01*
X171040217Y-95913566D01*
X170901392Y-95722490D01*
X170734385Y-95555483D01*
X170543308Y-95416657D01*
X170332871Y-95309433D01*
X170108243Y-95236446D01*
X169874972Y-95199500D01*
X169874967Y-95199500D01*
X169638783Y-95199500D01*
X169638778Y-95199500D01*
X169405503Y-95236447D01*
X169279308Y-95277450D01*
X169209467Y-95279445D01*
X169153310Y-95247200D01*
X168544465Y-94638355D01*
X168544463Y-94638352D01*
X168425592Y-94519481D01*
X168425591Y-94519480D01*
X168321835Y-94459577D01*
X168321834Y-94459576D01*
X168288658Y-94440422D01*
X168232756Y-94425443D01*
X168135932Y-94399499D01*
X167977818Y-94399499D01*
X167970222Y-94399499D01*
X167970206Y-94399500D01*
X135355124Y-94399500D01*
X135288085Y-94379815D01*
X135242330Y-94327011D01*
X135231124Y-94275500D01*
X135231124Y-93499998D01*
X135231123Y-93499981D01*
X135220624Y-93397203D01*
X135220623Y-93397200D01*
X135165439Y-93230666D01*
X135073337Y-93081344D01*
X134949281Y-92957288D01*
X134799959Y-92865186D01*
X134633422Y-92810001D01*
X134633420Y-92810000D01*
X134530641Y-92799500D01*
X134530634Y-92799500D01*
X133567625Y-92799500D01*
X133500586Y-92779815D01*
X133454831Y-92727011D01*
X133443625Y-92675500D01*
X133443625Y-90763767D01*
X133463310Y-90696728D01*
X133502526Y-90658230D01*
X133649281Y-90567712D01*
X133773337Y-90443656D01*
X133865439Y-90294334D01*
X133920624Y-90127797D01*
X133931125Y-90025009D01*
X133931124Y-88974992D01*
X133920624Y-88872203D01*
X133865439Y-88705666D01*
X133773337Y-88556344D01*
X133649281Y-88432288D01*
X133499959Y-88340186D01*
X133333422Y-88285001D01*
X133333420Y-88285000D01*
X133230641Y-88274500D01*
X133230634Y-88274500D01*
X132518222Y-88274500D01*
X132451183Y-88254815D01*
X132430541Y-88238181D01*
X130622306Y-86429946D01*
X130588821Y-86368623D01*
X130593805Y-86298931D01*
X130633081Y-86244995D01*
X130636472Y-86242313D01*
X130760440Y-86118345D01*
X130852481Y-85969124D01*
X130852483Y-85969119D01*
X130907630Y-85802697D01*
X130907631Y-85802690D01*
X130918124Y-85699986D01*
X130918125Y-85699973D01*
X130918125Y-84450000D01*
X128343125Y-84450000D01*
X128343125Y-84536147D01*
X128323440Y-84603186D01*
X128270636Y-84648941D01*
X128201477Y-84658884D01*
X128137922Y-84629858D01*
X128131444Y-84623827D01*
X126207630Y-82700013D01*
X128343125Y-82700013D01*
X128343125Y-83950000D01*
X129380625Y-83950000D01*
X129880625Y-83950000D01*
X130918124Y-83950000D01*
X130918124Y-82700028D01*
X130918123Y-82700013D01*
X130907630Y-82597302D01*
X130852483Y-82430880D01*
X130852481Y-82430875D01*
X130760440Y-82281654D01*
X130636470Y-82157684D01*
X130487249Y-82065643D01*
X130487244Y-82065641D01*
X130320822Y-82010494D01*
X130320815Y-82010493D01*
X130218111Y-82000000D01*
X129880625Y-82000000D01*
X129880625Y-83950000D01*
X129380625Y-83950000D01*
X129380625Y-82000000D01*
X129043153Y-82000000D01*
X129043137Y-82000001D01*
X128940427Y-82010494D01*
X128774005Y-82065641D01*
X128774000Y-82065643D01*
X128624779Y-82157684D01*
X128500809Y-82281654D01*
X128408768Y-82430875D01*
X128408766Y-82430880D01*
X128353619Y-82597302D01*
X128353618Y-82597309D01*
X128343125Y-82700013D01*
X126207630Y-82700013D01*
X125529944Y-82022327D01*
X125496459Y-81961004D01*
X125493625Y-81934646D01*
X125493625Y-79924986D01*
X129499376Y-79924986D01*
X129509869Y-80027697D01*
X129565016Y-80194119D01*
X129565018Y-80194124D01*
X129657059Y-80343345D01*
X129781029Y-80467315D01*
X129930250Y-80559356D01*
X129930255Y-80559358D01*
X130096677Y-80614505D01*
X130096684Y-80614506D01*
X130199394Y-80624999D01*
X130336874Y-80624999D01*
X130336875Y-80624998D01*
X130336875Y-79650000D01*
X129499376Y-79650000D01*
X129499376Y-79924986D01*
X125493625Y-79924986D01*
X125493625Y-74621341D01*
X125513310Y-74554302D01*
X125566114Y-74508547D01*
X125635272Y-74498603D01*
X125698828Y-74527628D01*
X125705306Y-74533660D01*
X128336020Y-77164374D01*
X128336030Y-77164385D01*
X128340360Y-77168715D01*
X128340361Y-77168716D01*
X128452165Y-77280520D01*
X128452167Y-77280521D01*
X128452171Y-77280524D01*
X128589090Y-77359573D01*
X128589097Y-77359577D01*
X128700900Y-77389534D01*
X128741823Y-77400500D01*
X128741824Y-77400500D01*
X129761778Y-77400500D01*
X129828817Y-77420185D01*
X129849459Y-77436819D01*
X130375959Y-77963319D01*
X130409444Y-78024642D01*
X130404460Y-78094334D01*
X130362588Y-78150267D01*
X130297124Y-78174684D01*
X130288279Y-78175000D01*
X130199404Y-78175000D01*
X130199387Y-78175001D01*
X130096677Y-78185494D01*
X129930255Y-78240641D01*
X129930250Y-78240643D01*
X129781029Y-78332684D01*
X129657059Y-78456654D01*
X129565018Y-78605875D01*
X129565016Y-78605880D01*
X129509869Y-78772302D01*
X129509868Y-78772309D01*
X129499375Y-78875013D01*
X129499375Y-79150000D01*
X130462875Y-79150000D01*
X130529914Y-79169685D01*
X130575669Y-79222489D01*
X130586875Y-79274000D01*
X130586875Y-79400000D01*
X130712875Y-79400000D01*
X130779914Y-79419685D01*
X130825669Y-79472489D01*
X130836875Y-79524000D01*
X130836875Y-80624999D01*
X130974347Y-80624999D01*
X130974361Y-80624998D01*
X131077072Y-80614505D01*
X131243494Y-80559358D01*
X131243499Y-80559356D01*
X131392720Y-80467315D01*
X131516693Y-80343342D01*
X131518540Y-80340348D01*
X131520344Y-80338724D01*
X131521173Y-80337677D01*
X131521351Y-80337818D01*
X131570485Y-80293621D01*
X131639448Y-80282396D01*
X131703531Y-80310236D01*
X131729618Y-80340341D01*
X131731663Y-80343656D01*
X131855719Y-80467712D01*
X132002472Y-80558229D01*
X132049196Y-80610175D01*
X132061375Y-80663767D01*
X132061375Y-82869580D01*
X132061374Y-82869598D01*
X132061374Y-83035304D01*
X132061373Y-83035304D01*
X132102298Y-83188035D01*
X132130248Y-83236446D01*
X132130250Y-83236448D01*
X132181354Y-83324964D01*
X132181356Y-83324967D01*
X132300224Y-83443835D01*
X132300230Y-83443840D01*
X132581306Y-83724916D01*
X132614791Y-83786239D01*
X132617625Y-83812597D01*
X132617625Y-85700001D01*
X132617626Y-85700018D01*
X132628125Y-85802796D01*
X132628126Y-85802799D01*
X132683240Y-85969119D01*
X132683311Y-85969334D01*
X132775413Y-86118656D01*
X132899469Y-86242712D01*
X133048791Y-86334814D01*
X133215328Y-86389999D01*
X133318116Y-86400500D01*
X134493133Y-86400499D01*
X134595922Y-86389999D01*
X134762459Y-86334814D01*
X134911781Y-86242712D01*
X135035837Y-86118656D01*
X135127939Y-85969334D01*
X135183124Y-85802797D01*
X135193625Y-85700009D01*
X135193625Y-85424500D01*
X135213310Y-85357461D01*
X135266114Y-85311706D01*
X135317625Y-85300500D01*
X167814057Y-85300500D01*
X167881096Y-85320185D01*
X167924541Y-85368203D01*
X167984782Y-85486433D01*
X168123608Y-85677510D01*
X168290615Y-85844517D01*
X168481692Y-85983343D01*
X168581116Y-86034002D01*
X168692128Y-86090566D01*
X168692130Y-86090566D01*
X168692133Y-86090568D01*
X168777622Y-86118345D01*
X168916756Y-86163553D01*
X169150028Y-86200500D01*
X169150033Y-86200500D01*
X169386222Y-86200500D01*
X169619493Y-86163553D01*
X169844117Y-86090568D01*
X170054558Y-85983343D01*
X170245635Y-85844517D01*
X170412642Y-85677510D01*
X170551468Y-85486433D01*
X170658693Y-85275992D01*
X170731678Y-85051368D01*
X170768625Y-84818097D01*
X170768625Y-84581902D01*
X170731678Y-84348631D01*
X170658691Y-84124003D01*
X170583024Y-83975500D01*
X170551468Y-83913567D01*
X170412642Y-83722490D01*
X170245635Y-83555483D01*
X170054558Y-83416657D01*
X169844121Y-83309433D01*
X169619493Y-83236446D01*
X169386222Y-83199500D01*
X169386217Y-83199500D01*
X169150033Y-83199500D01*
X169150028Y-83199500D01*
X168916756Y-83236446D01*
X168692128Y-83309433D01*
X168481691Y-83416657D01*
X168372675Y-83495862D01*
X168290615Y-83555483D01*
X168290613Y-83555485D01*
X168290612Y-83555485D01*
X168123610Y-83722487D01*
X168123610Y-83722488D01*
X168123608Y-83722490D01*
X168063987Y-83804550D01*
X167984782Y-83913566D01*
X167966218Y-83950000D01*
X167926980Y-84027011D01*
X167924542Y-84031795D01*
X167876567Y-84082591D01*
X167814057Y-84099500D01*
X135317624Y-84099500D01*
X135250585Y-84079815D01*
X135204830Y-84027011D01*
X135193624Y-83975500D01*
X135193624Y-82699998D01*
X135193623Y-82699981D01*
X135183124Y-82597203D01*
X135183123Y-82597200D01*
X135127939Y-82430666D01*
X135035837Y-82281344D01*
X134911781Y-82157288D01*
X134762459Y-82065186D01*
X134595922Y-82010001D01*
X134595920Y-82010000D01*
X134493141Y-81999500D01*
X133386375Y-81999500D01*
X133319336Y-81979815D01*
X133273581Y-81927011D01*
X133262375Y-81875500D01*
X133262375Y-80663767D01*
X133282060Y-80596728D01*
X133321276Y-80558230D01*
X133468031Y-80467712D01*
X133592087Y-80343656D01*
X133684189Y-80194334D01*
X133739374Y-80027797D01*
X133749875Y-79925009D01*
X133749874Y-78874992D01*
X133739374Y-78772203D01*
X133684189Y-78605666D01*
X133592087Y-78456344D01*
X133468031Y-78332288D01*
X133318709Y-78240186D01*
X133152172Y-78185001D01*
X133152170Y-78185000D01*
X133049391Y-78174500D01*
X133049384Y-78174500D01*
X132336972Y-78174500D01*
X132269933Y-78154815D01*
X132249291Y-78138181D01*
X130832904Y-76721794D01*
X130799419Y-76660471D01*
X130804403Y-76590779D01*
X130814696Y-76569735D01*
X130814982Y-76569122D01*
X130870130Y-76402697D01*
X130870131Y-76402690D01*
X130880624Y-76299986D01*
X130880625Y-76299973D01*
X130880625Y-75050000D01*
X128305625Y-75050000D01*
X128305625Y-75136148D01*
X128285940Y-75203187D01*
X128233136Y-75248942D01*
X128163977Y-75258885D01*
X128100422Y-75229859D01*
X128093944Y-75223828D01*
X126170129Y-73300013D01*
X128305625Y-73300013D01*
X128305625Y-74550000D01*
X129343125Y-74550000D01*
X129843125Y-74550000D01*
X130880624Y-74550000D01*
X130880624Y-73300028D01*
X130880623Y-73300013D01*
X130870130Y-73197302D01*
X130814983Y-73030880D01*
X130814981Y-73030875D01*
X130722940Y-72881654D01*
X130598970Y-72757684D01*
X130449749Y-72665643D01*
X130449744Y-72665641D01*
X130283322Y-72610494D01*
X130283315Y-72610493D01*
X130180611Y-72600000D01*
X129843125Y-72600000D01*
X129843125Y-74550000D01*
X129343125Y-74550000D01*
X129343125Y-72600000D01*
X129005653Y-72600000D01*
X129005637Y-72600001D01*
X128902927Y-72610494D01*
X128736505Y-72665641D01*
X128736500Y-72665643D01*
X128587279Y-72757684D01*
X128463309Y-72881654D01*
X128371268Y-73030875D01*
X128371266Y-73030880D01*
X128316119Y-73197302D01*
X128316118Y-73197309D01*
X128305625Y-73300013D01*
X126170129Y-73300013D01*
X125929944Y-73059828D01*
X125896459Y-72998505D01*
X125893625Y-72972147D01*
X125893625Y-69824986D01*
X129605626Y-69824986D01*
X129616119Y-69927697D01*
X129671266Y-70094119D01*
X129671268Y-70094124D01*
X129763309Y-70243345D01*
X129887279Y-70367315D01*
X130036500Y-70459356D01*
X130036505Y-70459358D01*
X130202927Y-70514505D01*
X130202934Y-70514506D01*
X130305644Y-70524999D01*
X130443124Y-70524999D01*
X130443125Y-70524998D01*
X130443125Y-69550000D01*
X129605626Y-69550000D01*
X129605626Y-69824986D01*
X125893625Y-69824986D01*
X125893625Y-64462783D01*
X125913310Y-64395744D01*
X125966114Y-64349989D01*
X126035272Y-64340045D01*
X126098828Y-64369070D01*
X126105305Y-64375101D01*
X129400723Y-67670520D01*
X129400725Y-67670521D01*
X129400729Y-67670524D01*
X129537648Y-67749573D01*
X129537655Y-67749577D01*
X129690382Y-67790501D01*
X129690384Y-67790501D01*
X129856093Y-67790501D01*
X129856109Y-67790500D01*
X130358028Y-67790500D01*
X130387468Y-67799144D01*
X130417455Y-67805668D01*
X130422470Y-67809422D01*
X130425067Y-67810185D01*
X130445709Y-67826819D01*
X130482209Y-67863319D01*
X130515694Y-67924642D01*
X130510710Y-67994334D01*
X130468838Y-68050267D01*
X130403374Y-68074684D01*
X130394529Y-68075000D01*
X130305654Y-68075000D01*
X130305637Y-68075001D01*
X130202927Y-68085494D01*
X130036505Y-68140641D01*
X130036500Y-68140643D01*
X129887279Y-68232684D01*
X129763309Y-68356654D01*
X129671268Y-68505875D01*
X129671266Y-68505880D01*
X129616119Y-68672302D01*
X129616118Y-68672309D01*
X129605625Y-68775013D01*
X129605625Y-69050000D01*
X130569125Y-69050000D01*
X130636164Y-69069685D01*
X130681919Y-69122489D01*
X130693125Y-69174000D01*
X130693125Y-69300000D01*
X130819125Y-69300000D01*
X130886164Y-69319685D01*
X130931919Y-69372489D01*
X130943125Y-69424000D01*
X130943125Y-70524999D01*
X131080597Y-70524999D01*
X131080611Y-70524998D01*
X131183322Y-70514505D01*
X131349744Y-70459358D01*
X131349749Y-70459356D01*
X131498970Y-70367315D01*
X131622943Y-70243342D01*
X131624790Y-70240348D01*
X131626594Y-70238724D01*
X131627423Y-70237677D01*
X131627601Y-70237818D01*
X131676735Y-70193621D01*
X131745698Y-70182396D01*
X131809781Y-70210236D01*
X131835868Y-70240341D01*
X131837913Y-70243656D01*
X131961969Y-70367712D01*
X132108722Y-70458229D01*
X132155446Y-70510175D01*
X132167625Y-70563767D01*
X132167625Y-73613330D01*
X132167624Y-73613348D01*
X132167624Y-73779054D01*
X132167623Y-73779054D01*
X132167624Y-73779057D01*
X132208548Y-73931785D01*
X132208549Y-73931787D01*
X132208548Y-73931787D01*
X132215592Y-73943986D01*
X132215593Y-73943987D01*
X132287602Y-74068712D01*
X132287606Y-74068717D01*
X132406474Y-74187585D01*
X132406480Y-74187590D01*
X132543806Y-74324916D01*
X132577291Y-74386239D01*
X132580125Y-74412597D01*
X132580125Y-76300001D01*
X132580126Y-76300018D01*
X132590625Y-76402796D01*
X132590626Y-76402799D01*
X132600066Y-76431286D01*
X132645811Y-76569334D01*
X132737913Y-76718656D01*
X132861969Y-76842712D01*
X133011291Y-76934814D01*
X133177828Y-76989999D01*
X133280616Y-77000500D01*
X134455633Y-77000499D01*
X134558422Y-76989999D01*
X134724959Y-76934814D01*
X134874281Y-76842712D01*
X134998337Y-76718656D01*
X135090439Y-76569334D01*
X135145624Y-76402797D01*
X135156125Y-76300009D01*
X135156125Y-75424500D01*
X135175810Y-75357461D01*
X135228614Y-75311706D01*
X135280125Y-75300500D01*
X168314057Y-75300500D01*
X168381096Y-75320185D01*
X168424541Y-75368203D01*
X168484782Y-75486433D01*
X168623608Y-75677510D01*
X168790615Y-75844517D01*
X168981692Y-75983343D01*
X169081116Y-76034002D01*
X169192128Y-76090566D01*
X169192130Y-76090566D01*
X169192133Y-76090568D01*
X169312537Y-76129689D01*
X169416756Y-76163553D01*
X169650028Y-76200500D01*
X169650033Y-76200500D01*
X169886222Y-76200500D01*
X170119493Y-76163553D01*
X170344117Y-76090568D01*
X170554558Y-75983343D01*
X170745635Y-75844517D01*
X170912642Y-75677510D01*
X171051468Y-75486433D01*
X171158693Y-75275992D01*
X171231678Y-75051368D01*
X171231895Y-75050000D01*
X171268625Y-74818097D01*
X171268625Y-74581902D01*
X171231678Y-74348631D01*
X171158691Y-74124003D01*
X171083024Y-73975500D01*
X171051468Y-73913567D01*
X170912642Y-73722490D01*
X170745635Y-73555483D01*
X170554558Y-73416657D01*
X170344121Y-73309433D01*
X170119493Y-73236446D01*
X169886222Y-73199500D01*
X169886217Y-73199500D01*
X169650033Y-73199500D01*
X169650028Y-73199500D01*
X169416756Y-73236446D01*
X169192128Y-73309433D01*
X168981691Y-73416657D01*
X168872675Y-73495862D01*
X168790615Y-73555483D01*
X168790613Y-73555485D01*
X168790612Y-73555485D01*
X168623610Y-73722487D01*
X168623610Y-73722488D01*
X168623608Y-73722490D01*
X168582512Y-73779054D01*
X168484782Y-73913566D01*
X168469282Y-73943987D01*
X168426980Y-74027011D01*
X168424542Y-74031795D01*
X168376567Y-74082591D01*
X168314057Y-74099500D01*
X135280124Y-74099500D01*
X135213085Y-74079815D01*
X135167330Y-74027011D01*
X135156124Y-73975500D01*
X135156124Y-73299998D01*
X135156123Y-73299981D01*
X135145624Y-73197203D01*
X135145623Y-73197200D01*
X135100102Y-73059828D01*
X135090439Y-73030666D01*
X134998337Y-72881344D01*
X134874281Y-72757288D01*
X134724959Y-72665186D01*
X134558422Y-72610001D01*
X134558420Y-72610000D01*
X134455641Y-72599500D01*
X134455634Y-72599500D01*
X133492625Y-72599500D01*
X133425586Y-72579815D01*
X133379831Y-72527011D01*
X133368625Y-72475500D01*
X133368625Y-70563767D01*
X133388310Y-70496728D01*
X133427526Y-70458230D01*
X133574281Y-70367712D01*
X133698337Y-70243656D01*
X133790439Y-70094334D01*
X133845624Y-69927797D01*
X133856125Y-69825009D01*
X133856124Y-68774992D01*
X133845624Y-68672203D01*
X133790439Y-68505666D01*
X133698337Y-68356344D01*
X133574281Y-68232288D01*
X133424959Y-68140186D01*
X133258422Y-68085001D01*
X133258420Y-68085000D01*
X133155641Y-68074500D01*
X133155634Y-68074500D01*
X132443223Y-68074500D01*
X132376184Y-68054815D01*
X132355542Y-68038181D01*
X132144180Y-67826819D01*
X131919540Y-67602180D01*
X131886056Y-67540858D01*
X131891040Y-67471167D01*
X131932911Y-67415233D01*
X131998376Y-67390816D01*
X132007222Y-67390500D01*
X149711200Y-67390500D01*
X149711216Y-67390501D01*
X149718812Y-67390501D01*
X149876923Y-67390501D01*
X149876926Y-67390501D01*
X150029654Y-67349577D01*
X150079773Y-67320639D01*
X150166585Y-67270520D01*
X150278389Y-67158716D01*
X150278389Y-67158714D01*
X150288597Y-67148507D01*
X150288599Y-67148504D01*
X150481838Y-66955265D01*
X150481841Y-66955264D01*
X150593645Y-66843460D01*
X150643764Y-66756648D01*
X150672702Y-66706529D01*
X150713625Y-66553802D01*
X150713625Y-66395687D01*
X150713625Y-63565466D01*
X168200625Y-63565466D01*
X168200625Y-63814533D01*
X168233133Y-64061463D01*
X168297598Y-64302049D01*
X168392908Y-64532148D01*
X168392913Y-64532159D01*
X168517438Y-64747841D01*
X168517444Y-64747849D01*
X168592025Y-64845045D01*
X169274099Y-64162971D01*
X169362712Y-64295590D01*
X169495035Y-64427913D01*
X169627652Y-64516525D01*
X168945578Y-65198598D01*
X169042775Y-65273180D01*
X169042783Y-65273186D01*
X169258465Y-65397711D01*
X169258476Y-65397716D01*
X169488575Y-65493026D01*
X169729161Y-65557491D01*
X169976091Y-65590000D01*
X170225159Y-65590000D01*
X170472088Y-65557491D01*
X170712674Y-65493026D01*
X170942773Y-65397716D01*
X170942784Y-65397711D01*
X171158480Y-65273178D01*
X171255670Y-65198600D01*
X171255670Y-65198597D01*
X170573597Y-64516525D01*
X170706215Y-64427913D01*
X170838538Y-64295590D01*
X170927149Y-64162972D01*
X171609222Y-64845045D01*
X171609225Y-64845045D01*
X171683803Y-64747855D01*
X171808336Y-64532159D01*
X171808341Y-64532148D01*
X171903651Y-64302049D01*
X171968116Y-64061463D01*
X172000625Y-63814533D01*
X172000625Y-63565466D01*
X171968116Y-63318536D01*
X171903651Y-63077950D01*
X171808341Y-62847851D01*
X171808336Y-62847840D01*
X171683811Y-62632158D01*
X171683805Y-62632150D01*
X171609223Y-62534953D01*
X170927149Y-63217026D01*
X170838538Y-63084410D01*
X170706215Y-62952087D01*
X170573596Y-62863473D01*
X171255670Y-62181400D01*
X171158474Y-62106819D01*
X171158466Y-62106813D01*
X170942784Y-61982288D01*
X170942773Y-61982283D01*
X170712674Y-61886973D01*
X170472088Y-61822508D01*
X170225159Y-61790000D01*
X169976091Y-61790000D01*
X169729161Y-61822508D01*
X169488575Y-61886973D01*
X169258476Y-61982283D01*
X169258472Y-61982285D01*
X169042768Y-62106823D01*
X168945578Y-62181399D01*
X168945578Y-62181400D01*
X169627652Y-62863474D01*
X169495035Y-62952087D01*
X169362712Y-63084410D01*
X169274099Y-63217027D01*
X168592025Y-62534953D01*
X168592024Y-62534953D01*
X168517448Y-62632143D01*
X168392910Y-62847847D01*
X168392908Y-62847851D01*
X168297598Y-63077950D01*
X168233133Y-63318536D01*
X168200625Y-63565466D01*
X150713625Y-63565466D01*
X150713625Y-59479060D01*
X150713626Y-59479047D01*
X150713626Y-59310944D01*
X150689657Y-59221492D01*
X150672702Y-59158216D01*
X150672698Y-59158209D01*
X150593649Y-59021290D01*
X150593643Y-59021282D01*
X150349943Y-58777582D01*
X150316458Y-58716259D01*
X150313624Y-58689901D01*
X150313624Y-57989998D01*
X150313623Y-57989981D01*
X150303124Y-57887203D01*
X150303123Y-57887200D01*
X150247939Y-57720666D01*
X150155837Y-57571344D01*
X150061820Y-57477327D01*
X150028335Y-57416004D01*
X150033319Y-57346312D01*
X150061820Y-57301964D01*
X150155442Y-57208342D01*
X150247481Y-57059124D01*
X150247483Y-57059119D01*
X150302630Y-56892697D01*
X150302631Y-56892690D01*
X150313124Y-56789986D01*
X150313125Y-56789973D01*
X150313125Y-56640000D01*
X149237125Y-56640000D01*
X149170086Y-56620315D01*
X149124331Y-56567511D01*
X149113125Y-56516000D01*
X149113125Y-56264000D01*
X149132810Y-56196961D01*
X149185614Y-56151206D01*
X149237125Y-56140000D01*
X150313124Y-56140000D01*
X150313124Y-55990028D01*
X150313123Y-55990013D01*
X150302630Y-55887302D01*
X150247483Y-55720880D01*
X150247481Y-55720875D01*
X150155440Y-55571654D01*
X150061820Y-55478034D01*
X150028335Y-55416711D01*
X150033319Y-55347019D01*
X150061816Y-55302676D01*
X150155837Y-55208656D01*
X150247939Y-55059334D01*
X150303124Y-54892797D01*
X150313625Y-54790009D01*
X150313624Y-54214499D01*
X150333308Y-54147461D01*
X150386112Y-54101706D01*
X150437624Y-54090500D01*
X155600528Y-54090500D01*
X155667567Y-54110185D01*
X155688209Y-54126819D01*
X161026386Y-59464997D01*
X161059871Y-59526320D01*
X161056872Y-59586385D01*
X161057670Y-59586577D01*
X161056650Y-59590824D01*
X161056643Y-59590976D01*
X161056532Y-59591316D01*
X161025125Y-59789616D01*
X161025125Y-59990383D01*
X161056532Y-60188680D01*
X161118574Y-60379626D01*
X161209720Y-60558508D01*
X161327728Y-60720932D01*
X161469693Y-60862897D01*
X161632117Y-60980905D01*
X161716632Y-61023967D01*
X161810998Y-61072050D01*
X161811000Y-61072050D01*
X161811003Y-61072052D01*
X162001945Y-61134093D01*
X162200241Y-61165500D01*
X162200242Y-61165500D01*
X162401008Y-61165500D01*
X162401009Y-61165500D01*
X162599305Y-61134093D01*
X162790247Y-61072052D01*
X162969133Y-60980905D01*
X163131557Y-60862897D01*
X163273522Y-60720932D01*
X163391530Y-60558508D01*
X163482677Y-60379622D01*
X163544718Y-60188680D01*
X163576125Y-59990384D01*
X163576125Y-59789616D01*
X163544718Y-59591320D01*
X163482677Y-59400378D01*
X163482675Y-59400375D01*
X163482675Y-59400373D01*
X163391529Y-59221491D01*
X163383455Y-59210378D01*
X163273522Y-59059068D01*
X163131557Y-58917103D01*
X162969133Y-58799095D01*
X162790251Y-58707949D01*
X162599305Y-58645907D01*
X162401009Y-58614500D01*
X162200241Y-58614500D01*
X162160581Y-58620781D01*
X162001941Y-58645907D01*
X162001601Y-58646018D01*
X162001464Y-58646021D01*
X161997202Y-58647045D01*
X161996986Y-58646149D01*
X161931759Y-58648001D01*
X161875622Y-58615761D01*
X159308918Y-56049057D01*
X159225302Y-55965441D01*
X168200125Y-55965441D01*
X168200125Y-56214558D01*
X168200126Y-56214575D01*
X168227580Y-56423113D01*
X168232643Y-56461565D01*
X168246170Y-56512049D01*
X168297123Y-56702207D01*
X168392455Y-56932361D01*
X168392462Y-56932376D01*
X168517025Y-57148126D01*
X168668685Y-57345774D01*
X168668691Y-57345781D01*
X168844843Y-57521933D01*
X168844850Y-57521939D01*
X169042498Y-57673599D01*
X169258248Y-57798162D01*
X169258263Y-57798169D01*
X169353613Y-57837664D01*
X169488418Y-57893502D01*
X169729060Y-57957982D01*
X169976060Y-57990500D01*
X169976067Y-57990500D01*
X170225183Y-57990500D01*
X170225190Y-57990500D01*
X170472190Y-57957982D01*
X170712832Y-57893502D01*
X170942998Y-57798164D01*
X171158752Y-57673599D01*
X171356401Y-57521938D01*
X171532563Y-57345776D01*
X171684224Y-57148127D01*
X171808789Y-56932373D01*
X171904127Y-56702207D01*
X171968607Y-56461565D01*
X172001125Y-56214565D01*
X172001125Y-55965435D01*
X171968607Y-55718435D01*
X171904127Y-55477793D01*
X171835016Y-55310945D01*
X171808794Y-55247638D01*
X171808787Y-55247623D01*
X171684224Y-55031873D01*
X171532564Y-54834225D01*
X171532558Y-54834218D01*
X171356406Y-54658066D01*
X171356399Y-54658060D01*
X171158751Y-54506400D01*
X170943001Y-54381837D01*
X170942986Y-54381830D01*
X170712832Y-54286498D01*
X170472186Y-54222017D01*
X170225200Y-54189501D01*
X170225195Y-54189500D01*
X170225190Y-54189500D01*
X169976060Y-54189500D01*
X169976054Y-54189500D01*
X169976049Y-54189501D01*
X169729063Y-54222017D01*
X169488417Y-54286498D01*
X169258263Y-54381830D01*
X169258248Y-54381837D01*
X169042498Y-54506400D01*
X168844850Y-54658060D01*
X168844843Y-54658066D01*
X168668691Y-54834218D01*
X168668685Y-54834225D01*
X168517025Y-55031873D01*
X168392462Y-55247623D01*
X168392455Y-55247638D01*
X168297123Y-55477792D01*
X168232642Y-55718438D01*
X168200126Y-55965424D01*
X168200125Y-55965441D01*
X159225302Y-55965441D01*
X156388215Y-53128355D01*
X156388213Y-53128352D01*
X156269342Y-53009481D01*
X156269341Y-53009480D01*
X156182529Y-52959360D01*
X156182529Y-52959359D01*
X156182525Y-52959358D01*
X156132410Y-52930423D01*
X155979682Y-52889499D01*
X155821568Y-52889499D01*
X155813972Y-52889499D01*
X155813956Y-52889500D01*
X146605265Y-52889500D01*
X146564344Y-52900464D01*
X146564344Y-52900465D01*
X146527076Y-52910451D01*
X146452539Y-52930423D01*
X146452534Y-52930426D01*
X146315615Y-53009475D01*
X146315607Y-53009481D01*
X143770906Y-55554183D01*
X143709583Y-55587668D01*
X143639891Y-55582684D01*
X143583958Y-55540812D01*
X143559541Y-55475348D01*
X143559225Y-55466502D01*
X143559225Y-52811545D01*
X143559225Y-52811543D01*
X143518302Y-52658816D01*
X143518298Y-52658809D01*
X143439249Y-52521890D01*
X143439243Y-52521882D01*
X143327442Y-52410081D01*
X143327434Y-52410075D01*
X143190515Y-52331026D01*
X143190511Y-52331024D01*
X143190509Y-52331023D01*
X143037782Y-52290100D01*
X143037781Y-52290100D01*
X129067825Y-52290100D01*
X129067809Y-52290099D01*
X129060213Y-52290099D01*
X128902098Y-52290099D01*
X128825734Y-52310561D01*
X128749369Y-52331023D01*
X128749364Y-52331026D01*
X128612445Y-52410075D01*
X128612437Y-52410081D01*
X124524411Y-56498107D01*
X124412606Y-56609911D01*
X124412600Y-56609919D01*
X124372731Y-56678976D01*
X124372731Y-56678977D01*
X124359319Y-56702207D01*
X124336415Y-56741879D01*
X124333548Y-56746844D01*
X124292624Y-56899572D01*
X124292624Y-57057686D01*
X124292624Y-57057688D01*
X124292625Y-57067682D01*
X124292625Y-82148074D01*
X124292624Y-82148092D01*
X124292624Y-82313798D01*
X124292623Y-82313798D01*
X116768625Y-82313798D01*
X116768625Y-63375441D01*
X117067625Y-63375441D01*
X117067625Y-63624558D01*
X117067626Y-63624575D01*
X117097886Y-63854428D01*
X117100143Y-63871565D01*
X117131946Y-63990254D01*
X117164623Y-64112207D01*
X117259955Y-64342361D01*
X117259962Y-64342376D01*
X117384525Y-64558126D01*
X117536185Y-64755774D01*
X117536191Y-64755781D01*
X117712343Y-64931933D01*
X117712350Y-64931939D01*
X117909998Y-65083599D01*
X118125748Y-65208162D01*
X118125763Y-65208169D01*
X118224950Y-65249253D01*
X118355918Y-65303502D01*
X118596560Y-65367982D01*
X118843560Y-65400500D01*
X118843567Y-65400500D01*
X119092683Y-65400500D01*
X119092690Y-65400500D01*
X119339690Y-65367982D01*
X119580332Y-65303502D01*
X119810498Y-65208164D01*
X120026252Y-65083599D01*
X120223901Y-64931938D01*
X120400063Y-64755776D01*
X120551724Y-64558127D01*
X120676289Y-64342373D01*
X120771627Y-64112207D01*
X120836107Y-63871565D01*
X120868625Y-63624565D01*
X120868625Y-63375435D01*
X120836107Y-63128435D01*
X120771627Y-62887793D01*
X120707319Y-62732539D01*
X120676294Y-62657638D01*
X120676287Y-62657623D01*
X120551724Y-62441873D01*
X120400064Y-62244225D01*
X120400058Y-62244218D01*
X120223906Y-62068066D01*
X120223899Y-62068060D01*
X120026251Y-61916400D01*
X119810501Y-61791837D01*
X119810486Y-61791830D01*
X119580332Y-61696498D01*
X119339686Y-61632017D01*
X119092700Y-61599501D01*
X119092695Y-61599500D01*
X119092690Y-61599500D01*
X118843560Y-61599500D01*
X118843554Y-61599500D01*
X118843549Y-61599501D01*
X118596563Y-61632017D01*
X118355917Y-61696498D01*
X118125763Y-61791830D01*
X118125748Y-61791837D01*
X117909998Y-61916400D01*
X117712350Y-62068060D01*
X117712343Y-62068066D01*
X117536191Y-62244218D01*
X117536185Y-62244225D01*
X117384525Y-62441873D01*
X117259962Y-62657623D01*
X117259955Y-62657638D01*
X117164623Y-62887792D01*
X117100142Y-63128438D01*
X117067626Y-63375424D01*
X117067625Y-63375441D01*
X116768625Y-63375441D01*
X116768625Y-55775466D01*
X117068125Y-55775466D01*
X117068125Y-56024533D01*
X117100633Y-56271463D01*
X117165098Y-56512049D01*
X117260408Y-56742148D01*
X117260413Y-56742159D01*
X117384938Y-56957841D01*
X117384944Y-56957849D01*
X117459525Y-57055045D01*
X118141599Y-56372971D01*
X118230212Y-56505590D01*
X118362535Y-56637913D01*
X118495152Y-56726525D01*
X117813078Y-57408598D01*
X117910275Y-57483180D01*
X117910283Y-57483186D01*
X118125965Y-57607711D01*
X118125976Y-57607716D01*
X118356075Y-57703026D01*
X118596661Y-57767491D01*
X118843591Y-57800000D01*
X119092659Y-57800000D01*
X119339588Y-57767491D01*
X119580174Y-57703026D01*
X119810273Y-57607716D01*
X119810284Y-57607711D01*
X120025980Y-57483178D01*
X120123170Y-57408600D01*
X120123170Y-57408597D01*
X119441097Y-56726525D01*
X119573715Y-56637913D01*
X119706038Y-56505590D01*
X119794650Y-56372972D01*
X120476722Y-57055045D01*
X120476725Y-57055045D01*
X120551303Y-56957855D01*
X120625442Y-56829444D01*
X120675836Y-56742159D01*
X120675841Y-56742148D01*
X120771151Y-56512049D01*
X120835616Y-56271463D01*
X120868125Y-56024533D01*
X120868125Y-55775466D01*
X120835616Y-55528536D01*
X120771151Y-55287950D01*
X120675841Y-55057851D01*
X120675836Y-55057840D01*
X120551311Y-54842158D01*
X120551305Y-54842150D01*
X120476723Y-54744953D01*
X119794649Y-55427026D01*
X119706038Y-55294410D01*
X119573715Y-55162087D01*
X119441096Y-55073473D01*
X120123170Y-54391400D01*
X120025974Y-54316819D01*
X120025966Y-54316813D01*
X119810284Y-54192288D01*
X119810273Y-54192283D01*
X119580174Y-54096973D01*
X119339588Y-54032508D01*
X119092659Y-54000000D01*
X118843591Y-54000000D01*
X118596661Y-54032508D01*
X118356075Y-54096973D01*
X118125976Y-54192283D01*
X118125972Y-54192285D01*
X117910268Y-54316823D01*
X117813078Y-54391399D01*
X117813078Y-54391400D01*
X118495152Y-55073474D01*
X118362535Y-55162087D01*
X118230212Y-55294410D01*
X118141599Y-55427027D01*
X117459525Y-54744953D01*
X117459524Y-54744953D01*
X117384948Y-54842143D01*
X117260410Y-55057847D01*
X117260408Y-55057851D01*
X117165098Y-55287950D01*
X117100633Y-55528536D01*
X117068125Y-55775466D01*
X116768625Y-55775466D01*
X116768625Y-49324500D01*
X116788310Y-49257461D01*
X116841114Y-49211706D01*
X116892625Y-49200500D01*
X173143625Y-49200500D01*
X173210664Y-49220185D01*
G37*
%TD.AperFunction*%
%TD*%
M02*
