%TF.GenerationSoftware,KiCad,Pcbnew,10.0.3*%
%TF.CreationDate,2026-05-29T23:39:59-05:00*%
%TF.ProjectId,OPA564,4f504135-3634-42e6-9b69-6361645f7063,rev?*%
%TF.SameCoordinates,Original*%
%TF.FileFunction,Legend,Top*%
%TF.FilePolarity,Positive*%
%FSLAX46Y46*%
G04 Gerber Fmt 4.6, Leading zero omitted, Abs format (unit mm)*
G04 Created by KiCad (PCBNEW 10.0.3) date 2026-05-29 23:39:59*
%MOMM*%
%LPD*%
G01*
G04 APERTURE LIST*
%ADD10C,0.150000*%
%ADD11C,0.254000*%
%ADD12C,0.120000*%
%ADD13C,0.152400*%
%ADD14C,0.100000*%
G04 APERTURE END LIST*
D10*
X163649819Y-25856666D02*
X163173628Y-26189999D01*
X163649819Y-26428094D02*
X162649819Y-26428094D01*
X162649819Y-26428094D02*
X162649819Y-26047142D01*
X162649819Y-26047142D02*
X162697438Y-25951904D01*
X162697438Y-25951904D02*
X162745057Y-25904285D01*
X162745057Y-25904285D02*
X162840295Y-25856666D01*
X162840295Y-25856666D02*
X162983152Y-25856666D01*
X162983152Y-25856666D02*
X163078390Y-25904285D01*
X163078390Y-25904285D02*
X163126009Y-25951904D01*
X163126009Y-25951904D02*
X163173628Y-26047142D01*
X163173628Y-26047142D02*
X163173628Y-26428094D01*
X162649819Y-25523332D02*
X162649819Y-24904285D01*
X162649819Y-24904285D02*
X163030771Y-25237618D01*
X163030771Y-25237618D02*
X163030771Y-25094761D01*
X163030771Y-25094761D02*
X163078390Y-24999523D01*
X163078390Y-24999523D02*
X163126009Y-24951904D01*
X163126009Y-24951904D02*
X163221247Y-24904285D01*
X163221247Y-24904285D02*
X163459342Y-24904285D01*
X163459342Y-24904285D02*
X163554580Y-24951904D01*
X163554580Y-24951904D02*
X163602200Y-24999523D01*
X163602200Y-24999523D02*
X163649819Y-25094761D01*
X163649819Y-25094761D02*
X163649819Y-25380475D01*
X163649819Y-25380475D02*
X163602200Y-25475713D01*
X163602200Y-25475713D02*
X163554580Y-25523332D01*
X147189583Y-48379580D02*
X147141964Y-48427200D01*
X147141964Y-48427200D02*
X146999107Y-48474819D01*
X146999107Y-48474819D02*
X146903869Y-48474819D01*
X146903869Y-48474819D02*
X146761012Y-48427200D01*
X146761012Y-48427200D02*
X146665774Y-48331961D01*
X146665774Y-48331961D02*
X146618155Y-48236723D01*
X146618155Y-48236723D02*
X146570536Y-48046247D01*
X146570536Y-48046247D02*
X146570536Y-47903390D01*
X146570536Y-47903390D02*
X146618155Y-47712914D01*
X146618155Y-47712914D02*
X146665774Y-47617676D01*
X146665774Y-47617676D02*
X146761012Y-47522438D01*
X146761012Y-47522438D02*
X146903869Y-47474819D01*
X146903869Y-47474819D02*
X146999107Y-47474819D01*
X146999107Y-47474819D02*
X147141964Y-47522438D01*
X147141964Y-47522438D02*
X147189583Y-47570057D01*
X148046726Y-47808152D02*
X148046726Y-48474819D01*
X147808631Y-47427200D02*
X147570536Y-48141485D01*
X147570536Y-48141485D02*
X148189583Y-48141485D01*
X147295833Y-42809580D02*
X147248214Y-42857200D01*
X147248214Y-42857200D02*
X147105357Y-42904819D01*
X147105357Y-42904819D02*
X147010119Y-42904819D01*
X147010119Y-42904819D02*
X146867262Y-42857200D01*
X146867262Y-42857200D02*
X146772024Y-42761961D01*
X146772024Y-42761961D02*
X146724405Y-42666723D01*
X146724405Y-42666723D02*
X146676786Y-42476247D01*
X146676786Y-42476247D02*
X146676786Y-42333390D01*
X146676786Y-42333390D02*
X146724405Y-42142914D01*
X146724405Y-42142914D02*
X146772024Y-42047676D01*
X146772024Y-42047676D02*
X146867262Y-41952438D01*
X146867262Y-41952438D02*
X147010119Y-41904819D01*
X147010119Y-41904819D02*
X147105357Y-41904819D01*
X147105357Y-41904819D02*
X147248214Y-41952438D01*
X147248214Y-41952438D02*
X147295833Y-42000057D01*
X148200595Y-41904819D02*
X147724405Y-41904819D01*
X147724405Y-41904819D02*
X147676786Y-42381009D01*
X147676786Y-42381009D02*
X147724405Y-42333390D01*
X147724405Y-42333390D02*
X147819643Y-42285771D01*
X147819643Y-42285771D02*
X148057738Y-42285771D01*
X148057738Y-42285771D02*
X148152976Y-42333390D01*
X148152976Y-42333390D02*
X148200595Y-42381009D01*
X148200595Y-42381009D02*
X148248214Y-42476247D01*
X148248214Y-42476247D02*
X148248214Y-42714342D01*
X148248214Y-42714342D02*
X148200595Y-42809580D01*
X148200595Y-42809580D02*
X148152976Y-42857200D01*
X148152976Y-42857200D02*
X148057738Y-42904819D01*
X148057738Y-42904819D02*
X147819643Y-42904819D01*
X147819643Y-42904819D02*
X147724405Y-42857200D01*
X147724405Y-42857200D02*
X147676786Y-42809580D01*
X163649819Y-35356666D02*
X163173628Y-35689999D01*
X163649819Y-35928094D02*
X162649819Y-35928094D01*
X162649819Y-35928094D02*
X162649819Y-35547142D01*
X162649819Y-35547142D02*
X162697438Y-35451904D01*
X162697438Y-35451904D02*
X162745057Y-35404285D01*
X162745057Y-35404285D02*
X162840295Y-35356666D01*
X162840295Y-35356666D02*
X162983152Y-35356666D01*
X162983152Y-35356666D02*
X163078390Y-35404285D01*
X163078390Y-35404285D02*
X163126009Y-35451904D01*
X163126009Y-35451904D02*
X163173628Y-35547142D01*
X163173628Y-35547142D02*
X163173628Y-35928094D01*
X163649819Y-34404285D02*
X163649819Y-34975713D01*
X163649819Y-34689999D02*
X162649819Y-34689999D01*
X162649819Y-34689999D02*
X162792676Y-34785237D01*
X162792676Y-34785237D02*
X162887914Y-34880475D01*
X162887914Y-34880475D02*
X162935533Y-34975713D01*
X146827083Y-52209580D02*
X146779464Y-52257200D01*
X146779464Y-52257200D02*
X146636607Y-52304819D01*
X146636607Y-52304819D02*
X146541369Y-52304819D01*
X146541369Y-52304819D02*
X146398512Y-52257200D01*
X146398512Y-52257200D02*
X146303274Y-52161961D01*
X146303274Y-52161961D02*
X146255655Y-52066723D01*
X146255655Y-52066723D02*
X146208036Y-51876247D01*
X146208036Y-51876247D02*
X146208036Y-51733390D01*
X146208036Y-51733390D02*
X146255655Y-51542914D01*
X146255655Y-51542914D02*
X146303274Y-51447676D01*
X146303274Y-51447676D02*
X146398512Y-51352438D01*
X146398512Y-51352438D02*
X146541369Y-51304819D01*
X146541369Y-51304819D02*
X146636607Y-51304819D01*
X146636607Y-51304819D02*
X146779464Y-51352438D01*
X146779464Y-51352438D02*
X146827083Y-51400057D01*
X147160417Y-51304819D02*
X147779464Y-51304819D01*
X147779464Y-51304819D02*
X147446131Y-51685771D01*
X147446131Y-51685771D02*
X147588988Y-51685771D01*
X147588988Y-51685771D02*
X147684226Y-51733390D01*
X147684226Y-51733390D02*
X147731845Y-51781009D01*
X147731845Y-51781009D02*
X147779464Y-51876247D01*
X147779464Y-51876247D02*
X147779464Y-52114342D01*
X147779464Y-52114342D02*
X147731845Y-52209580D01*
X147731845Y-52209580D02*
X147684226Y-52257200D01*
X147684226Y-52257200D02*
X147588988Y-52304819D01*
X147588988Y-52304819D02*
X147303274Y-52304819D01*
X147303274Y-52304819D02*
X147208036Y-52257200D01*
X147208036Y-52257200D02*
X147160417Y-52209580D01*
X147370833Y-58659580D02*
X147323214Y-58707200D01*
X147323214Y-58707200D02*
X147180357Y-58754819D01*
X147180357Y-58754819D02*
X147085119Y-58754819D01*
X147085119Y-58754819D02*
X146942262Y-58707200D01*
X146942262Y-58707200D02*
X146847024Y-58611961D01*
X146847024Y-58611961D02*
X146799405Y-58516723D01*
X146799405Y-58516723D02*
X146751786Y-58326247D01*
X146751786Y-58326247D02*
X146751786Y-58183390D01*
X146751786Y-58183390D02*
X146799405Y-57992914D01*
X146799405Y-57992914D02*
X146847024Y-57897676D01*
X146847024Y-57897676D02*
X146942262Y-57802438D01*
X146942262Y-57802438D02*
X147085119Y-57754819D01*
X147085119Y-57754819D02*
X147180357Y-57754819D01*
X147180357Y-57754819D02*
X147323214Y-57802438D01*
X147323214Y-57802438D02*
X147370833Y-57850057D01*
X147942262Y-58183390D02*
X147847024Y-58135771D01*
X147847024Y-58135771D02*
X147799405Y-58088152D01*
X147799405Y-58088152D02*
X147751786Y-57992914D01*
X147751786Y-57992914D02*
X147751786Y-57945295D01*
X147751786Y-57945295D02*
X147799405Y-57850057D01*
X147799405Y-57850057D02*
X147847024Y-57802438D01*
X147847024Y-57802438D02*
X147942262Y-57754819D01*
X147942262Y-57754819D02*
X148132738Y-57754819D01*
X148132738Y-57754819D02*
X148227976Y-57802438D01*
X148227976Y-57802438D02*
X148275595Y-57850057D01*
X148275595Y-57850057D02*
X148323214Y-57945295D01*
X148323214Y-57945295D02*
X148323214Y-57992914D01*
X148323214Y-57992914D02*
X148275595Y-58088152D01*
X148275595Y-58088152D02*
X148227976Y-58135771D01*
X148227976Y-58135771D02*
X148132738Y-58183390D01*
X148132738Y-58183390D02*
X147942262Y-58183390D01*
X147942262Y-58183390D02*
X147847024Y-58231009D01*
X147847024Y-58231009D02*
X147799405Y-58278628D01*
X147799405Y-58278628D02*
X147751786Y-58373866D01*
X147751786Y-58373866D02*
X147751786Y-58564342D01*
X147751786Y-58564342D02*
X147799405Y-58659580D01*
X147799405Y-58659580D02*
X147847024Y-58707200D01*
X147847024Y-58707200D02*
X147942262Y-58754819D01*
X147942262Y-58754819D02*
X148132738Y-58754819D01*
X148132738Y-58754819D02*
X148227976Y-58707200D01*
X148227976Y-58707200D02*
X148275595Y-58659580D01*
X148275595Y-58659580D02*
X148323214Y-58564342D01*
X148323214Y-58564342D02*
X148323214Y-58373866D01*
X148323214Y-58373866D02*
X148275595Y-58278628D01*
X148275595Y-58278628D02*
X148227976Y-58231009D01*
X148227976Y-58231009D02*
X148132738Y-58183390D01*
X147295833Y-38279580D02*
X147248214Y-38327200D01*
X147248214Y-38327200D02*
X147105357Y-38374819D01*
X147105357Y-38374819D02*
X147010119Y-38374819D01*
X147010119Y-38374819D02*
X146867262Y-38327200D01*
X146867262Y-38327200D02*
X146772024Y-38231961D01*
X146772024Y-38231961D02*
X146724405Y-38136723D01*
X146724405Y-38136723D02*
X146676786Y-37946247D01*
X146676786Y-37946247D02*
X146676786Y-37803390D01*
X146676786Y-37803390D02*
X146724405Y-37612914D01*
X146724405Y-37612914D02*
X146772024Y-37517676D01*
X146772024Y-37517676D02*
X146867262Y-37422438D01*
X146867262Y-37422438D02*
X147010119Y-37374819D01*
X147010119Y-37374819D02*
X147105357Y-37374819D01*
X147105357Y-37374819D02*
X147248214Y-37422438D01*
X147248214Y-37422438D02*
X147295833Y-37470057D01*
X148152976Y-37374819D02*
X147962500Y-37374819D01*
X147962500Y-37374819D02*
X147867262Y-37422438D01*
X147867262Y-37422438D02*
X147819643Y-37470057D01*
X147819643Y-37470057D02*
X147724405Y-37612914D01*
X147724405Y-37612914D02*
X147676786Y-37803390D01*
X147676786Y-37803390D02*
X147676786Y-38184342D01*
X147676786Y-38184342D02*
X147724405Y-38279580D01*
X147724405Y-38279580D02*
X147772024Y-38327200D01*
X147772024Y-38327200D02*
X147867262Y-38374819D01*
X147867262Y-38374819D02*
X148057738Y-38374819D01*
X148057738Y-38374819D02*
X148152976Y-38327200D01*
X148152976Y-38327200D02*
X148200595Y-38279580D01*
X148200595Y-38279580D02*
X148248214Y-38184342D01*
X148248214Y-38184342D02*
X148248214Y-37946247D01*
X148248214Y-37946247D02*
X148200595Y-37851009D01*
X148200595Y-37851009D02*
X148152976Y-37803390D01*
X148152976Y-37803390D02*
X148057738Y-37755771D01*
X148057738Y-37755771D02*
X147867262Y-37755771D01*
X147867262Y-37755771D02*
X147772024Y-37803390D01*
X147772024Y-37803390D02*
X147724405Y-37851009D01*
X147724405Y-37851009D02*
X147676786Y-37946247D01*
X149242456Y-22941649D02*
X149242456Y-21300019D01*
X150962259Y-22785304D02*
X150884086Y-22863477D01*
X150884086Y-22863477D02*
X150649568Y-22941649D01*
X150649568Y-22941649D02*
X150493222Y-22941649D01*
X150493222Y-22941649D02*
X150258703Y-22863477D01*
X150258703Y-22863477D02*
X150102358Y-22707131D01*
X150102358Y-22707131D02*
X150024185Y-22550785D01*
X150024185Y-22550785D02*
X149946012Y-22238094D01*
X149946012Y-22238094D02*
X149946012Y-22003575D01*
X149946012Y-22003575D02*
X150024185Y-21690884D01*
X150024185Y-21690884D02*
X150102358Y-21534538D01*
X150102358Y-21534538D02*
X150258703Y-21378192D01*
X150258703Y-21378192D02*
X150493222Y-21300019D01*
X150493222Y-21300019D02*
X150649568Y-21300019D01*
X150649568Y-21300019D02*
X150884086Y-21378192D01*
X150884086Y-21378192D02*
X150962259Y-21456365D01*
X152525716Y-22941649D02*
X151587642Y-22941649D01*
X152056679Y-22941649D02*
X152056679Y-21300019D01*
X152056679Y-21300019D02*
X151900333Y-21534538D01*
X151900333Y-21534538D02*
X151743988Y-21690884D01*
X151743988Y-21690884D02*
X151587642Y-21769057D01*
D11*
X189649818Y-30613332D02*
X190556961Y-30613332D01*
X190556961Y-30613332D02*
X190738389Y-30673809D01*
X190738389Y-30673809D02*
X190859342Y-30794761D01*
X190859342Y-30794761D02*
X190919818Y-30976190D01*
X190919818Y-30976190D02*
X190919818Y-31097142D01*
X190919818Y-29343332D02*
X190919818Y-30069047D01*
X190919818Y-29706190D02*
X189649818Y-29706190D01*
X189649818Y-29706190D02*
X189831246Y-29827142D01*
X189831246Y-29827142D02*
X189952199Y-29948094D01*
X189952199Y-29948094D02*
X190012675Y-30069047D01*
D10*
X163649819Y-29856666D02*
X163173628Y-30189999D01*
X163649819Y-30428094D02*
X162649819Y-30428094D01*
X162649819Y-30428094D02*
X162649819Y-30047142D01*
X162649819Y-30047142D02*
X162697438Y-29951904D01*
X162697438Y-29951904D02*
X162745057Y-29904285D01*
X162745057Y-29904285D02*
X162840295Y-29856666D01*
X162840295Y-29856666D02*
X162983152Y-29856666D01*
X162983152Y-29856666D02*
X163078390Y-29904285D01*
X163078390Y-29904285D02*
X163126009Y-29951904D01*
X163126009Y-29951904D02*
X163173628Y-30047142D01*
X163173628Y-30047142D02*
X163173628Y-30428094D01*
X162745057Y-29475713D02*
X162697438Y-29428094D01*
X162697438Y-29428094D02*
X162649819Y-29332856D01*
X162649819Y-29332856D02*
X162649819Y-29094761D01*
X162649819Y-29094761D02*
X162697438Y-28999523D01*
X162697438Y-28999523D02*
X162745057Y-28951904D01*
X162745057Y-28951904D02*
X162840295Y-28904285D01*
X162840295Y-28904285D02*
X162935533Y-28904285D01*
X162935533Y-28904285D02*
X163078390Y-28951904D01*
X163078390Y-28951904D02*
X163649819Y-29523332D01*
X163649819Y-29523332D02*
X163649819Y-28904285D01*
X147370833Y-63009580D02*
X147323214Y-63057200D01*
X147323214Y-63057200D02*
X147180357Y-63104819D01*
X147180357Y-63104819D02*
X147085119Y-63104819D01*
X147085119Y-63104819D02*
X146942262Y-63057200D01*
X146942262Y-63057200D02*
X146847024Y-62961961D01*
X146847024Y-62961961D02*
X146799405Y-62866723D01*
X146799405Y-62866723D02*
X146751786Y-62676247D01*
X146751786Y-62676247D02*
X146751786Y-62533390D01*
X146751786Y-62533390D02*
X146799405Y-62342914D01*
X146799405Y-62342914D02*
X146847024Y-62247676D01*
X146847024Y-62247676D02*
X146942262Y-62152438D01*
X146942262Y-62152438D02*
X147085119Y-62104819D01*
X147085119Y-62104819D02*
X147180357Y-62104819D01*
X147180357Y-62104819D02*
X147323214Y-62152438D01*
X147323214Y-62152438D02*
X147370833Y-62200057D01*
X147704167Y-62104819D02*
X148370833Y-62104819D01*
X148370833Y-62104819D02*
X147942262Y-63104819D01*
D11*
X129491318Y-30423332D02*
X130398461Y-30423332D01*
X130398461Y-30423332D02*
X130579889Y-30483809D01*
X130579889Y-30483809D02*
X130700842Y-30604761D01*
X130700842Y-30604761D02*
X130761318Y-30786190D01*
X130761318Y-30786190D02*
X130761318Y-30907142D01*
X129612270Y-29879047D02*
X129551794Y-29818571D01*
X129551794Y-29818571D02*
X129491318Y-29697618D01*
X129491318Y-29697618D02*
X129491318Y-29395237D01*
X129491318Y-29395237D02*
X129551794Y-29274285D01*
X129551794Y-29274285D02*
X129612270Y-29213809D01*
X129612270Y-29213809D02*
X129733222Y-29153332D01*
X129733222Y-29153332D02*
X129854175Y-29153332D01*
X129854175Y-29153332D02*
X130035603Y-29213809D01*
X130035603Y-29213809D02*
X130761318Y-29939523D01*
X130761318Y-29939523D02*
X130761318Y-29153332D01*
%TO.C,R3*%
D12*
X164110000Y-25917064D02*
X164110000Y-25462936D01*
X165580000Y-25917064D02*
X165580000Y-25462936D01*
%TO.C,C4*%
X147094998Y-48965000D02*
X147617502Y-48965000D01*
X147094998Y-50435000D02*
X147617502Y-50435000D01*
%TO.C,C5*%
X146301248Y-43390000D02*
X148623752Y-43390000D01*
X146301248Y-46810000D02*
X148623752Y-46810000D01*
%TO.C,R1*%
X164110000Y-35417064D02*
X164110000Y-34962936D01*
X165580000Y-35417064D02*
X165580000Y-34962936D01*
%TO.C,C3*%
X146338748Y-52790000D02*
X148661252Y-52790000D01*
X146338748Y-56210000D02*
X148661252Y-56210000D01*
%TO.C,C8*%
X147276248Y-59065000D02*
X147798752Y-59065000D01*
X147276248Y-60535000D02*
X147798752Y-60535000D01*
%TO.C,C6*%
X147201248Y-38865000D02*
X147723752Y-38865000D01*
X147201248Y-40335000D02*
X147723752Y-40335000D01*
%TO.C,IC1*%
D13*
X147361400Y-36762000D02*
X154930600Y-36762000D01*
X150841200Y-23808000D02*
X147361400Y-23808000D01*
X151450800Y-23808000D02*
X150841200Y-23808000D01*
X154930600Y-23808000D02*
X151450800Y-23808000D01*
X151450800Y-23808000D02*
G75*
G02*
X150841200Y-23808000I-304800J0D01*
G01*
%TO.C,J1*%
D14*
X181632500Y-35015000D02*
X181632500Y-25365000D01*
X203432500Y-25365000D02*
X187682500Y-25365000D01*
X203432500Y-35015000D02*
X187682500Y-35015000D01*
X203432500Y-35015000D02*
X203432500Y-25365000D01*
%TO.C,R2*%
D12*
X164110000Y-29917064D02*
X164110000Y-29462936D01*
X165580000Y-29917064D02*
X165580000Y-29462936D01*
%TO.C,C7*%
X146376248Y-63590000D02*
X148698752Y-63590000D01*
X146376248Y-67010000D02*
X148698752Y-67010000D01*
%TO.C,J2*%
D14*
X117100000Y-25175000D02*
X117100000Y-34825000D01*
X117100000Y-25175000D02*
X132850000Y-25175000D01*
X117100000Y-34825000D02*
X132850000Y-34825000D01*
X138900000Y-25175000D02*
X138900000Y-34825000D01*
%TD*%
M02*
