%TF.GenerationSoftware,KiCad,Pcbnew,10.0.3*%
%TF.CreationDate,2026-05-29T23:39:59-05:00*%
%TF.ProjectId,OPA564,4f504135-3634-42e6-9b69-6361645f7063,rev?*%
%TF.SameCoordinates,Original*%
%TF.FileFunction,Copper,L1,Top*%
%TF.FilePolarity,Positive*%
%FSLAX46Y46*%
G04 Gerber Fmt 4.6, Leading zero omitted, Abs format (unit mm)*
G04 Created by KiCad (PCBNEW 10.0.3) date 2026-05-29 23:39:59*
%MOMM*%
%LPD*%
G01*
G04 APERTURE LIST*
G04 Aperture macros list*
%AMRoundRect*
0 Rectangle with rounded corners*
0 $1 Rounding radius*
0 $2 $3 $4 $5 $6 $7 $8 $9 X,Y pos of 4 corners*
0 Add a 4 corners polygon primitive as box body*
4,1,4,$2,$3,$4,$5,$6,$7,$8,$9,$2,$3,0*
0 Add four circle primitives for the rounded corners*
1,1,$1+$1,$2,$3*
1,1,$1+$1,$4,$5*
1,1,$1+$1,$6,$7*
1,1,$1+$1,$8,$9*
0 Add four rect primitives between the rounded corners*
20,1,$1+$1,$2,$3,$4,$5,0*
20,1,$1+$1,$4,$5,$6,$7,0*
20,1,$1+$1,$6,$7,$8,$9,0*
20,1,$1+$1,$8,$9,$2,$3,0*%
G04 Aperture macros list end*
%TA.AperFunction,SMDPad,CuDef*%
%ADD10RoundRect,0.250000X0.450000X-0.350000X0.450000X0.350000X-0.450000X0.350000X-0.450000X-0.350000X0*%
%TD*%
%TA.AperFunction,SMDPad,CuDef*%
%ADD11RoundRect,0.250000X-0.337500X-0.475000X0.337500X-0.475000X0.337500X0.475000X-0.337500X0.475000X0*%
%TD*%
%TA.AperFunction,SMDPad,CuDef*%
%ADD12RoundRect,0.250000X-0.537500X-1.450000X0.537500X-1.450000X0.537500X1.450000X-0.537500X1.450000X0*%
%TD*%
%TA.AperFunction,ComponentPad*%
%ADD13C,2.000000*%
%TD*%
%TA.AperFunction,SMDPad,CuDef*%
%ADD14R,1.981200X0.558800*%
%TD*%
%TA.AperFunction,SMDPad,CuDef*%
%ADD15R,2.794000X3.810000*%
%TD*%
%TA.AperFunction,ComponentPad*%
%ADD16C,1.550000*%
%TD*%
%TA.AperFunction,ComponentPad*%
%ADD17C,2.800000*%
%TD*%
%TA.AperFunction,Conductor*%
%ADD18C,0.200000*%
%TD*%
G04 APERTURE END LIST*
D10*
%TO.P,R3,1*%
%TO.N,GND*%
X164845000Y-26690000D03*
%TO.P,R3,2*%
%TO.N,Net-(IC1--IN)*%
X164845000Y-24690000D03*
%TD*%
D11*
%TO.P,C4,1*%
%TO.N,GND*%
X146318750Y-49700000D03*
%TO.P,C4,2*%
%TO.N,-12 Volts*%
X148393750Y-49700000D03*
%TD*%
D12*
%TO.P,C5,1*%
%TO.N,GND*%
X145325000Y-45100000D03*
%TO.P,C5,2*%
%TO.N,+12 Volts*%
X149600000Y-45100000D03*
%TD*%
D10*
%TO.P,R1,1*%
%TO.N,-12 Volts*%
X164845000Y-36190000D03*
%TO.P,R1,2*%
%TO.N,Net-(IC1-ISET)*%
X164845000Y-34190000D03*
%TD*%
D13*
%TO.P,,1,Pin_1*%
%TO.N,+12 Volts*%
X185500000Y-45000000D03*
%TD*%
D12*
%TO.P,C3,1*%
%TO.N,GND*%
X145362500Y-54500000D03*
%TO.P,C3,2*%
%TO.N,-12 Volts*%
X149637500Y-54500000D03*
%TD*%
D11*
%TO.P,C8,1*%
%TO.N,GND*%
X146500000Y-59800000D03*
%TO.P,C8,2*%
%TO.N,-8 Volts*%
X148575000Y-59800000D03*
%TD*%
D13*
%TO.P,,1,Pin_1*%
%TO.N,-8 Volts*%
X185488750Y-67000000D03*
%TD*%
%TO.P,,1,Pin_1*%
%TO.N,-12 Volts*%
X185000000Y-55000000D03*
%TD*%
D11*
%TO.P,C6,1*%
%TO.N,GND*%
X146425000Y-39600000D03*
%TO.P,C6,2*%
%TO.N,+12 Volts*%
X148500000Y-39600000D03*
%TD*%
D14*
%TO.P,IC1,1,V-_1_1*%
%TO.N,-12 Volts*%
X146447000Y-24570000D03*
%TO.P,IC1,2,V+_PWR_1_2*%
%TO.N,+12 Volts*%
X146447000Y-25840000D03*
%TO.P,IC1,3,V+_PWR_2_3*%
X146447000Y-27110000D03*
%TO.P,IC1,4,V+_PWR_3_4*%
X146447000Y-28380000D03*
%TO.P,IC1,5,VOUT_1_5*%
%TO.N,Net-(IC1-VOUT_1)*%
X146447000Y-29650000D03*
%TO.P,IC1,6,VOUT_2_6*%
X146447000Y-30920000D03*
%TO.P,IC1,7,V-PWR_1_7*%
%TO.N,-12 Volts*%
X146447000Y-32190000D03*
%TO.P,IC1,8,V-PWR_2_8*%
X146447000Y-33460000D03*
%TO.P,IC1,9,TSENSE_9*%
%TO.N,unconnected-(IC1-TSENSE-Pad9)*%
X146447000Y-34730000D03*
%TO.P,IC1,10,V-_2_10*%
%TO.N,-12 Volts*%
X146447000Y-36000000D03*
%TO.P,IC1,11,V-_3_11*%
X155845000Y-36000000D03*
%TO.P,IC1,12,ISET_12*%
%TO.N,Net-(IC1-ISET)*%
X155845000Y-34730000D03*
%TO.P,IC1,13,IFLAG_13*%
%TO.N,unconnected-(IC1-IFLAG-Pad13)*%
X155845000Y-33460000D03*
%TO.P,IC1,14,VDIG_14*%
%TO.N,-8 Volts*%
X155845000Y-32190000D03*
%TO.P,IC1,15,-IN_15*%
%TO.N,Net-(IC1--IN)*%
X155845000Y-30920000D03*
%TO.P,IC1,16,+IN_16*%
%TO.N,Signal Input*%
X155845000Y-29650000D03*
%TO.P,IC1,17,E/~{S}_17*%
%TO.N,unconnected-(IC1-E{slash}~{S}-Pad17)*%
X155845000Y-28380000D03*
%TO.P,IC1,18,TFLAG_18*%
%TO.N,unconnected-(IC1-TFLAG-Pad18)*%
X155845000Y-27110000D03*
%TO.P,IC1,19,V+_19*%
%TO.N,+12 Volts*%
X155845000Y-25840000D03*
%TO.P,IC1,20,V-_4_20*%
%TO.N,-12 Volts*%
X155845000Y-24570000D03*
D15*
%TO.P,IC1,21,EP_21*%
%TO.N,unconnected-(IC1-EP-Pad21)*%
X151146000Y-30285000D03*
%TD*%
D16*
%TO.P,J1,1,In_1*%
%TO.N,Signal Input*%
X178032500Y-30190000D03*
D17*
%TO.P,J1,2,Ext_2*%
%TO.N,GND*%
X185832500Y-33990000D03*
%TO.P,J1,3*%
%TO.N,N/C*%
X185832500Y-26390000D03*
%TD*%
D10*
%TO.P,R2,1*%
%TO.N,Net-(IC1--IN)*%
X164845000Y-30690000D03*
%TO.P,R2,2*%
%TO.N,Net-(IC1-VOUT_1)*%
X164845000Y-28690000D03*
%TD*%
D12*
%TO.P,C7,1*%
%TO.N,GND*%
X145400000Y-65300000D03*
%TO.P,C7,2*%
%TO.N,-8 Volts*%
X149675000Y-65300000D03*
%TD*%
D16*
%TO.P,J2,1,In_1*%
%TO.N,Net-(IC1-VOUT_1)*%
X142500000Y-30000000D03*
D17*
%TO.P,J2,2,Ext_2*%
%TO.N,GND*%
X134700000Y-26200000D03*
%TO.P,J2,3*%
%TO.N,N/C*%
X134700000Y-33800000D03*
%TD*%
%TO.N,GND*%
D18*
X168145000Y-33990000D02*
X185832500Y-33990000D01*
X146318750Y-53543750D02*
X145362500Y-54500000D01*
X187232499Y-35389999D02*
X185832500Y-33990000D01*
X174633100Y-22790600D02*
X185832500Y-33990000D01*
X146318750Y-49700000D02*
X146318750Y-53543750D01*
X146500000Y-64200000D02*
X145400000Y-65300000D01*
X145400000Y-65300000D02*
X148400000Y-68300000D01*
X146425000Y-39600000D02*
X146425000Y-44000000D01*
X164845000Y-26690000D02*
X166345000Y-28190000D01*
X145325000Y-45100000D02*
X148900000Y-48675000D01*
X166345000Y-28190000D02*
X166345000Y-32190000D01*
X146425000Y-44000000D02*
X145325000Y-45100000D01*
X148900000Y-48675000D02*
X183663478Y-48675000D01*
X187232499Y-54605979D02*
X187232499Y-35389999D01*
X187232499Y-67094729D02*
X187232499Y-35389999D01*
X134700000Y-26200000D02*
X138109400Y-22790600D01*
X166345000Y-32190000D02*
X168145000Y-33990000D01*
X138109400Y-22790600D02*
X174633100Y-22790600D01*
X183663478Y-48675000D02*
X187232499Y-45105979D01*
X185338478Y-56500000D02*
X187232499Y-54605979D01*
X187232499Y-45105979D02*
X187232499Y-35389999D01*
X148400000Y-68300000D02*
X186027228Y-68300000D01*
X146500000Y-59800000D02*
X146500000Y-64200000D01*
X147362500Y-56500000D02*
X185338478Y-56500000D01*
X186027228Y-68300000D02*
X187232499Y-67094729D01*
X145362500Y-54500000D02*
X147362500Y-56500000D01*
%TO.N,Net-(IC1--IN)*%
X164845000Y-24690000D02*
X163845000Y-25690000D01*
X156075000Y-30690000D02*
X155845000Y-30920000D01*
X163845000Y-29690000D02*
X164845000Y-30690000D01*
X163845000Y-25690000D02*
X163845000Y-29690000D01*
X164845000Y-30690000D02*
X156075000Y-30690000D01*
%TO.N,-12 Volts*%
X164345000Y-36190000D02*
X164155000Y-36000000D01*
X146447000Y-33460000D02*
X147047000Y-33460000D01*
X153345000Y-34211200D02*
X155133800Y-36000000D01*
X141025000Y-27444315D02*
X144878715Y-23590600D01*
X147047000Y-24570000D02*
X147845000Y-25368000D01*
X157135600Y-26419400D02*
X153925600Y-26419400D01*
X153345000Y-26190000D02*
X153345000Y-27000000D01*
X164155000Y-36000000D02*
X155845000Y-36000000D01*
X144552756Y-47100000D02*
X141025000Y-43572244D01*
X148393750Y-53256250D02*
X149637500Y-54500000D01*
X150137500Y-55000000D02*
X149637500Y-54500000D01*
X144878715Y-23590600D02*
X157311286Y-23590600D01*
X153345000Y-27000000D02*
X153345000Y-34211200D01*
X157745000Y-25810000D02*
X157135600Y-26419400D01*
X147737600Y-35420600D02*
X147158200Y-36000000D01*
X147845000Y-25368000D02*
X147845000Y-28852000D01*
X146447000Y-24570000D02*
X147047000Y-24570000D01*
X145793750Y-47100000D02*
X144552756Y-47100000D01*
X164845000Y-36190000D02*
X164345000Y-36190000D01*
X185000000Y-55000000D02*
X150137500Y-55000000D01*
X147845000Y-28852000D02*
X147845000Y-29190000D01*
X153925600Y-26419400D02*
X153345000Y-27000000D01*
X141025000Y-43572244D02*
X141025000Y-27444315D01*
X148393750Y-49700000D02*
X148393750Y-53256250D01*
X147345000Y-32190000D02*
X146447000Y-32190000D01*
X148393750Y-49700000D02*
X145793750Y-47100000D01*
X147737600Y-34150600D02*
X147737600Y-35420600D01*
X155133800Y-36000000D02*
X155845000Y-36000000D01*
X147047000Y-33460000D02*
X147737600Y-34150600D01*
X147845000Y-29190000D02*
X147845000Y-31690000D01*
X157745000Y-24024315D02*
X157745000Y-25810000D01*
X154965000Y-24570000D02*
X153345000Y-26190000D01*
X146447000Y-33460000D02*
X146447000Y-32190000D01*
X147047000Y-32190000D02*
X146447000Y-32190000D01*
X155845000Y-24570000D02*
X154965000Y-24570000D01*
X147845000Y-31690000D02*
X147345000Y-32190000D01*
X157311286Y-23590600D02*
X157745000Y-24024315D01*
X147158200Y-36000000D02*
X146447000Y-36000000D01*
X146447000Y-24570000D02*
X155845000Y-24570000D01*
%TO.N,+12 Volts*%
X142599720Y-28380000D02*
X146447000Y-28380000D01*
X157345000Y-24190000D02*
X157345000Y-25051200D01*
X157145600Y-23990600D02*
X157345000Y-24190000D01*
X144845000Y-24190000D02*
X145044400Y-23990600D01*
X148500000Y-44000000D02*
X149600000Y-45100000D01*
X146390000Y-37490000D02*
X145501314Y-37490000D01*
X185500000Y-45000000D02*
X149700000Y-45000000D01*
X149700000Y-45000000D02*
X149600000Y-45100000D01*
X141425000Y-33413686D02*
X141425000Y-29554720D01*
X156556200Y-25840000D02*
X155845000Y-25840000D01*
X157345000Y-25051200D02*
X156556200Y-25840000D01*
X146447000Y-28380000D02*
X146447000Y-25840000D01*
X144845000Y-25190000D02*
X144845000Y-24190000D01*
X145633800Y-25978800D02*
X144845000Y-25190000D01*
X148500000Y-39600000D02*
X146390000Y-37490000D01*
X148500000Y-39600000D02*
X148500000Y-44000000D01*
X145044400Y-23990600D02*
X157145600Y-23990600D01*
X141425000Y-29554720D02*
X142599720Y-28380000D01*
X145501314Y-37490000D02*
X141425000Y-33413686D01*
%TO.N,Net-(IC1-ISET)*%
X156385000Y-34190000D02*
X155845000Y-34730000D01*
X164845000Y-34190000D02*
X156385000Y-34190000D01*
%TO.N,-8 Volts*%
X154699400Y-27800600D02*
X154000000Y-28500000D01*
X145090256Y-57000000D02*
X140625000Y-52534744D01*
X140625000Y-52534744D02*
X140625000Y-27278629D01*
X158690600Y-26245600D02*
X157135600Y-27800600D01*
X157135600Y-27800600D02*
X154699400Y-27800600D01*
X148575000Y-64200000D02*
X149675000Y-65300000D01*
X154000000Y-30945000D02*
X155245000Y-32190000D01*
X144713030Y-23190600D02*
X158690600Y-23190600D01*
X154000000Y-28500000D02*
X154000000Y-30945000D01*
X140625000Y-27278629D02*
X144713030Y-23190600D01*
X148575000Y-59800000D02*
X145775000Y-57000000D01*
X145775000Y-57000000D02*
X145090256Y-57000000D01*
X158690600Y-23190600D02*
X158690600Y-26245600D01*
X148575000Y-59800000D02*
X148575000Y-64200000D01*
X185488750Y-67000000D02*
X183788750Y-65300000D01*
X183788750Y-65300000D02*
X149675000Y-65300000D01*
X155245000Y-32190000D02*
X155845000Y-32190000D01*
%TO.N,Net-(IC1-VOUT_1)*%
X164845000Y-28690000D02*
X165845000Y-29690000D01*
X145667000Y-37090000D02*
X145156400Y-36579400D01*
X145847000Y-30920000D02*
X146447000Y-30920000D01*
X146447000Y-29650000D02*
X146447000Y-30920000D01*
X145156400Y-36579400D02*
X145156400Y-31610600D01*
X165529744Y-37090000D02*
X145667000Y-37090000D01*
X143420000Y-30920000D02*
X146447000Y-30920000D01*
X165845000Y-36774744D02*
X165529744Y-37090000D01*
X145156400Y-31610600D02*
X145847000Y-30920000D01*
X142500000Y-30000000D02*
X143420000Y-30920000D01*
X165845000Y-29690000D02*
X165845000Y-36774744D01*
%TO.N,Signal Input*%
X162416200Y-23790000D02*
X156556200Y-29650000D01*
X178032500Y-30190000D02*
X171632500Y-23790000D01*
X156556200Y-29650000D02*
X155845000Y-29650000D01*
X171632500Y-23790000D02*
X162416200Y-23790000D01*
%TD*%
M02*
